<svg version="1.1" xmlns="http://www.w3.org/2000/svg" xmlns:xlink="http://www.w3.org/1999/xlink" width="304.99463" height="304.99512" viewBox="0,0,304.99463,304.99512"><g transform="translate(-87.50269,-27.50244)"><g data-paper-data="{&quot;isPaintingLayer&quot;:true}" fill="#ff6d6d" fill-rule="nonzero" stroke="none" stroke-width="0" stroke-linecap="butt" stroke-linejoin="miter" stroke-miterlimit="10" stroke-dasharray="" stroke-dashoffset="0" style="mix-blend-mode: normal"><path d="M226.78977,40.7127c0,-7.29582 5.91443,-13.21026 13.21026,-13.21026c7.29582,0 13.21026,5.91443 13.21026,13.21026c0,7.29582 -5.91443,13.21026 -13.21026,13.21026c-7.29582,0 -13.21026,-5.91443 -13.21026,-13.21026z"/><path d="M226.78977,319.2873c0,-7.29582 5.91443,-13.21026 13.21026,-13.21026c7.29582,0 13.21026,5.91443 13.21026,13.21026c0,7.29582 -5.91443,13.21026 -13.21026,13.21026c-7.29582,0 -13.21026,-5.91443 -13.21026,-13.21026z"/><path d="M297.70043,52.53966c3.62292,-6.33272 11.6936,-8.52944 18.0263,-4.90649c6.33272,3.62292 8.52944,11.6936 4.90651,18.0263c-3.62292,6.33272 -11.6936,8.52944 -18.0263,4.90649c-6.33272,-3.62292 -8.52944,-11.6936 -4.90651,-18.0263z"/><path d="M159.36677,294.3404c3.62292,-6.33272 11.6936,-8.52944 18.0263,-4.90649c6.33272,3.62292 8.52944,11.6936 4.90651,18.0263c-3.62292,6.33272 -11.6936,8.52944 -18.0263,4.90649c-6.33272,-3.62292 -8.52944,-11.6936 -4.90651,-18.0263z"/><path d="M354.00534,98.8935c6.31765,-3.64916 14.39734,-1.48589 18.04648,4.83176c3.64916,6.31765 1.48589,14.39734 -4.83176,18.04648c-6.31765,3.64916 -14.39734,1.48589 -18.04648,-4.83176c-3.64916,-6.31765 -1.48589,-14.39734 4.83176,-18.04648z"/><path d="M112.77992,238.2281c6.31765,-3.64916 14.39734,-1.48589 18.04648,4.83176c3.64916,6.31765 1.48589,14.39734 -4.83176,18.04648c-6.31765,3.64916 -14.39734,1.48589 -18.04648,-4.83176c-3.64916,-6.31765 -1.48589,-14.39734 4.83176,-18.04648z"/><path d="M379.31025,167.03413c7.29582,0.0128 13.19985,5.93759 13.18705,13.23341c-0.0128,7.29582 -5.93759,13.19985 -13.23341,13.18705c-7.29582,-0.0128 -13.19985,-5.93759 -13.18705,-13.23341c0.0128,-7.29582 5.93759,-13.19985 13.23341,-13.18705z"/><path d="M100.73612,166.54541c7.29582,0.0128 13.19985,5.93759 13.18705,13.23341c-0.0128,7.29582 -5.93759,13.19985 -13.23341,13.18705c-7.29582,-0.0128 -13.19985,-5.93759 -13.18705,-13.23341c0.0128,-7.29582 5.93759,-13.19985 13.23341,-13.18705z"/><path d="M177.39307,70.5659c-6.3327,3.62295 -14.40338,1.42624 -18.0263,-4.90649c-3.62292,-6.3327 -1.42621,-14.40338 4.90651,-18.0263c6.3327,-3.62295 14.40338,-1.42624 18.0263,4.90649c3.62292,6.3327 1.42621,14.40338 -4.90651,18.0263z" data-paper-data="{&quot;index&quot;:null}"/><path d="M315.7267,312.36671c-6.3327,3.62295 -14.40338,1.42624 -18.0263,-4.90649c-3.62292,-6.3327 -1.42621,-14.40338 4.90651,-18.0263c6.3327,-3.62295 14.40338,-1.42624 18.0263,4.90649c3.62292,6.3327 1.42621,14.40338 -4.90651,18.0263z" data-paper-data="{&quot;index&quot;:null}"/><path d="M130.8264,116.94004c-3.64913,6.31765 -11.72883,8.48091 -18.04648,4.83176c-6.31765,-3.64913 -8.48091,-11.72883 -4.83176,-18.04648c3.64913,-6.31765 11.72883,-8.48091 18.04648,-4.83176c6.31765,3.64913 8.48091,11.72883 4.83176,18.04648z" data-paper-data="{&quot;index&quot;:null}"/><path d="M372.05184,256.27458c-3.64913,6.31765 -11.72883,8.48091 -18.04648,4.83176c-6.31765,-3.64913 -8.48091,-11.72883 -4.83176,-18.04648c3.64913,-6.31765 11.72883,-8.48091 18.04648,-4.83176c6.31765,3.64913 8.48091,11.72883 4.83176,18.04648z" data-paper-data="{&quot;index&quot;:null}"/></g></g></svg>