<svg version="1.1" xmlns="http://www.w3.org/2000/svg" xmlns:xlink="http://www.w3.org/1999/xlink" width="141.5" height="141.5" viewBox="0,0,141.5,141.5"><g transform="translate(-169.25,-109.25)"><g data-paper-data="{&quot;isPaintingLayer&quot;:true}" fill-rule="nonzero" stroke="#ff7d7d" stroke-width="4.5" stroke-linecap="butt" stroke-linejoin="miter" stroke-miterlimit="10" stroke-dasharray="" stroke-dashoffset="0" style="mix-blend-mode: normal"><path d="M171.5,180c0,-37.8315 30.6685,-68.5 68.5,-68.5c37.8315,0 68.5,30.6685 68.5,68.5c0,37.8315 -30.6685,68.5 -68.5,68.5c-37.8315,0 -68.5,-30.6685 -68.5,-68.5z" fill="#000000"/><path d="M171.5,180c0,-37.8315 30.6685,-68.5 68.5,-68.5c37.8315,0 68.5,30.6685 68.5,68.5c0,37.8315 -30.6685,68.5 -68.5,68.5c-37.8315,0 -68.5,-30.6685 -68.5,-68.5z" fill="none"/><path d="M178.5,180c0,-33.96551 27.53449,-61.5 61.5,-61.5c33.96551,0 61.5,27.53449 61.5,61.5c0,33.96551 -27.53449,61.5 -61.5,61.5c-33.96551,0 -61.5,-27.53449 -61.5,-61.5z" fill="none"/><path d="M185,180c0,-30.37566 24.62434,-55 55,-55c30.37566,0 55,24.62434 55,55c0,30.37566 -24.62434,55 -55,55c-30.37566,0 -55,-24.62434 -55,-55z" fill="none"/><path d="M192.5,180c0,-26.23352 21.26648,-47.5 47.5,-47.5c26.23352,0 47.5,21.26648 47.5,47.5c0,26.23352 -21.26648,47.5 -47.5,47.5c-26.23352,0 -47.5,-21.26648 -47.5,-47.5z" fill="none"/><path d="M199.5,180c0,-22.36753 18.13247,-40.5 40.5,-40.5c22.36753,0 40.5,18.13247 40.5,40.5c0,22.36753 -18.13247,40.5 -40.5,40.5c-22.36753,0 -40.5,-18.13247 -40.5,-40.5z" fill="none"/><path d="M206.5,180c0,-18.50153 14.99847,-33.5 33.5,-33.5c18.50153,0 33.5,14.99847 33.5,33.5c0,18.50153 -14.99847,33.5 -33.5,33.5c-18.50153,0 -33.5,-14.99847 -33.5,-33.5z" fill="none"/></g></g></svg>