<svg version="1.1" xmlns="http://www.w3.org/2000/svg" xmlns:xlink="http://www.w3.org/1999/xlink" width="141.48866" height="141.5" viewBox="0,0,141.48866,141.5"><g transform="translate(-169.25567,-109.25)"><g data-paper-data="{&quot;isPaintingLayer&quot;:true}" fill="none" fill-rule="nonzero" stroke="#ff9a9a" stroke-width="4.5" stroke-linecap="butt" stroke-linejoin="miter" stroke-miterlimit="10" stroke-dasharray="" stroke-dashoffset="0" style="mix-blend-mode: normal"><path d="M238.5,179c0,-37.8315 -36.3315,-67.5 1.5,-67.5c37.8315,0 0.5,25.6685 0.5,63.5c0,37.8315 37.3315,73.5 -0.5,73.5c-37.8315,0 -1.5,-31.6685 -1.5,-69.5z"/><path d="M241.05412,178.63796c37.80235,1.48504 68.87414,-33.65386 67.3891,4.14849c-1.48504,37.80235 -25.66834,-0.50797 -63.47068,-1.99301c-37.80235,-1.48504 -74.90877,34.41755 -73.42373,-3.38479c1.48504,-37.80235 31.70297,-0.25572 69.50532,1.22932z"/><path d="M239.49697,178.49192c27.55988,-25.91671 24.28397,-72.70844 50.20068,-45.14856c25.9167,27.55988 -18.35672,17.94861 -45.9166,43.86532c-27.55988,25.91671 -27.96986,77.54726 -53.88657,49.98738c-25.91671,-27.55988 22.04261,-22.78743 49.60249,-48.70414z"/><path d="M290.10552,227.19606c-25.9167,27.55988 -26.32668,-24.07068 -53.88657,-49.98738c-27.55988,-25.91671 -71.8333,-16.30544 -45.9166,-43.86532c25.91671,-27.55988 22.64079,19.23185 50.20067,45.14856c27.55988,25.91671 75.5192,21.14426 49.60249,48.70414z" data-paper-data="{&quot;index&quot;:null}"/></g></g></svg>