<svg version="1.1" xmlns="http://www.w3.org/2000/svg" xmlns:xlink="http://www.w3.org/1999/xlink" width="129.86842" height="129.86862" viewBox="0,0,129.86842,129.86862"><g transform="translate(-175.06579,-115.06569)"><g data-paper-data="{&quot;isPaintingLayer&quot;:true}" fill="#ffb1b1" fill-rule="nonzero" stroke="none" stroke-width="0" stroke-linecap="butt" stroke-linejoin="miter" stroke-miterlimit="10" stroke-dasharray="" stroke-dashoffset="0" style="mix-blend-mode: normal"><g><path d="M234.37501,120.69069c0,-3.1066 2.5184,-5.625 5.625,-5.625c3.1066,0 5.625,2.5184 5.625,5.625c0,3.1066 -2.5184,5.625 -5.625,5.625c-3.1066,0 -5.625,-2.5184 -5.625,-5.625z"/><path d="M234.37501,239.30931c0,-3.1066 2.5184,-5.625 5.625,-5.625c3.1066,0 5.625,2.5184 5.625,5.625c0,3.1066 -2.5184,5.625 -5.625,5.625c-3.1066,0 -5.625,-2.5184 -5.625,-5.625z"/><path d="M264.56916,125.72668c1.54266,-2.69651 4.9792,-3.63188 7.6757,-2.08921c2.69651,1.54266 3.63188,4.9792 2.08922,7.6757c-1.54266,2.69651 -4.9792,3.63188 -7.6757,2.08921c-2.69651,-1.54266 -3.63188,-4.9792 -2.08922,-7.6757z"/><path d="M205.66592,228.68678c1.54266,-2.69651 4.9792,-3.63188 7.6757,-2.08921c2.69651,1.54266 3.63188,4.9792 2.08922,7.6757c-1.54266,2.69651 -4.9792,3.63188 -7.6757,2.08921c-2.69651,-1.54266 -3.63188,-4.9792 -2.08922,-7.6757z"/><path d="M288.54411,145.46439c2.69009,-1.55383 6.13047,-0.6327 7.68429,2.05739c1.55383,2.69009 0.6327,6.13047 -2.05739,7.68429c-2.69009,1.55383 -6.13047,0.6327 -7.68429,-2.05739c-1.55383,-2.69009 -0.6327,-6.13047 2.05739,-7.68429z"/><path d="M185.82898,204.79385c2.69009,-1.55383 6.13047,-0.6327 7.68429,2.05739c1.55383,2.69009 0.6327,6.13047 -2.05739,7.68429c-2.69009,1.55383 -6.13047,0.6327 -7.68429,-2.05739c-1.55383,-2.69009 -0.6327,-6.13047 2.05739,-7.68429z"/><path d="M299.31908,174.47906c3.1066,0.00545 5.62057,2.52826 5.61512,5.63486c-0.00545,3.1066 -2.52826,5.62057 -5.63486,5.61512c-3.1066,-0.00545 -5.62057,-2.52826 -5.61512,-5.63486c0.00545,-3.1066 2.52826,-5.62057 5.63486,-5.61512z"/><path d="M180.70066,174.27096c3.1066,0.00545 5.62057,2.52826 5.61512,5.63486c-0.00545,3.1066 -2.52826,5.62057 -5.63486,5.61512c-3.1066,-0.00545 -5.62057,-2.52826 -5.61512,-5.63486c0.00545,-3.1066 2.52826,-5.62057 5.63486,-5.61512z"/><path d="M213.34162,133.40234c-2.6965,1.54267 -6.13304,0.6073 -7.6757,-2.08921c-1.54266,-2.6965 -0.60729,-6.13304 2.08922,-7.6757c2.6965,-1.54267 6.13304,-0.6073 7.6757,2.08921c1.54266,2.6965 0.60729,6.13304 -2.08922,7.6757z" data-paper-data="{&quot;index&quot;:null}"/><path d="M272.24485,236.36248c-2.6965,1.54267 -6.13304,0.6073 -7.6757,-2.08921c-1.54266,-2.6965 -0.60729,-6.13304 2.08922,-7.6757c2.6965,-1.54267 6.13304,-0.6073 7.6757,2.08921c1.54266,2.6965 0.60729,6.13304 -2.08922,7.6757z" data-paper-data="{&quot;index&quot;:null}"/><path d="M193.51327,153.14872c-1.55382,2.69009 -4.9942,3.61122 -7.68429,2.05739c-2.69009,-1.55382 -3.61122,-4.9942 -2.05739,-7.68429c1.55382,-2.69009 4.9942,-3.61122 7.68429,-2.05739c2.69009,1.55382 3.61122,4.9942 2.05739,7.68429z" data-paper-data="{&quot;index&quot;:null}"/><path d="M296.22841,212.47814c-1.55382,2.69009 -4.9942,3.61122 -7.68429,2.05739c-2.69009,-1.55382 -3.61122,-4.9942 -2.05739,-7.68429c1.55382,-2.69009 4.9942,-3.61122 7.68429,-2.05739c2.69009,1.55382 3.61122,4.9942 2.05739,7.68429z" data-paper-data="{&quot;index&quot;:null}"/></g><g><path d="M244.92392,120.62837c0.54793,-3.0579 3.47103,-5.09263 6.52893,-4.5447c3.0579,0.54793 5.09263,3.47103 4.5447,6.52893c-0.54793,3.0579 -3.47103,5.09263 -6.52893,4.5447c-3.0579,-0.54793 -5.09263,-3.47103 -4.5447,-6.52893z"/><path d="M224.00247,237.3874c0.54793,-3.0579 3.47103,-5.09263 6.52893,-4.5447c3.0579,0.54793 5.09263,3.47103 4.5447,6.52893c-0.54793,3.0579 -3.47103,5.09263 -6.52893,4.5447c-3.0579,-0.54793 -5.09263,-3.47103 -4.5447,-6.52893z"/><path d="M273.75648,130.91093c1.99407,-2.38215 5.54172,-2.69673 7.92385,-0.70265c2.38215,1.99407 2.69673,5.54172 0.70266,7.92386c-1.99407,2.38215 -5.54172,2.69673 -7.92385,0.70265c-2.38215,-1.99407 -2.69673,-5.54172 -0.70266,-7.92386z"/><path d="M197.61701,221.86781c1.99407,-2.38215 5.54172,-2.69673 7.92385,-0.70265c2.38215,1.99407 2.69673,5.54172 0.70266,7.92386c-1.99407,2.38215 -5.54172,2.69673 -7.92385,0.70265c-2.38215,-1.99407 -2.69673,-5.54172 -0.70266,-7.92386z"/><path d="M293.87432,154.56781c2.92198,-1.055 6.14596,0.45849 7.20095,3.38046c1.055,2.92198 -0.45849,6.14596 -3.38046,7.20095c-2.92198,1.055 -6.14596,-0.45849 -7.20095,-3.38046c-1.055,-2.92198 0.45849,-6.14596 3.38046,-7.20095z"/><path d="M182.30519,194.8507c2.92198,-1.055 6.14596,0.45849 7.20095,3.38046c1.055,2.92198 -0.45849,6.14596 -3.38046,7.20095c-2.92198,1.055 -6.14596,-0.45849 -7.20095,-3.38046c-1.055,-2.92198 0.45849,-6.14596 3.38046,-7.20095z"/><path d="M299.36289,185.02806c3.05694,0.55329 5.08653,3.47996 4.53324,6.53689c-0.55329,3.05694 -3.47996,5.08653 -6.53689,4.53324c-3.05694,-0.55329 -5.08653,-3.47996 -4.53324,-6.53689c0.55329,-3.05694 3.47996,-5.08653 6.53689,-4.53324z"/><path d="M182.64076,163.90181c3.05694,0.55329 5.08653,3.47996 4.53324,6.53689c-0.55329,3.05694 -3.47996,5.08653 -6.53689,4.53324c-3.05694,-0.55329 -5.08653,-3.47996 -4.53324,-6.53689c0.55329,-3.05694 3.47996,-5.08653 6.53689,-4.53324z"/><path d="M221.97824,129.43096c-2.92632,1.04289 -6.144,-0.48394 -7.18688,-3.41026c-1.04288,-2.92631 0.48395,-6.144 3.41027,-7.18688c2.92632,-1.04289 6.144,0.48394 7.18688,3.41026c1.04288,2.92631 -0.48395,6.144 -3.41027,7.18688z" data-paper-data="{&quot;index&quot;:null}"/><path d="M261.79837,241.16609c-2.92632,1.04289 -6.144,-0.48394 -7.18688,-3.41026c-1.04288,-2.92631 0.48395,-6.144 3.41027,-7.18688c2.92632,-1.04289 6.144,0.48394 7.18688,3.41026c1.04288,2.92631 -0.48395,6.144 -3.41027,7.18688z" data-paper-data="{&quot;index&quot;:null}"/><path d="M198.97796,145.37054c-2.00393,2.37386 -5.55284,2.67375 -7.9267,0.66981c-2.37386,-2.00393 -2.67375,-5.55284 -0.66981,-7.9267c2.00393,-2.37386 5.55284,-2.67375 7.9267,-0.66981c2.37386,2.00393 2.67375,5.55284 0.66981,7.9267z" data-paper-data="{&quot;index&quot;:null}"/><path d="M289.61856,221.8863c-2.00393,2.37386 -5.55284,2.67375 -7.9267,0.66981c-2.37386,-2.00393 -2.67375,-5.55284 -0.66981,-7.9267c2.00393,-2.37386 5.55284,-2.67375 7.9267,-0.66981c2.37386,2.00393 2.67375,5.55284 0.66981,7.9267z" data-paper-data="{&quot;index&quot;:null}"/></g><g><path d="M254.90869,122.32014c1.05794,-2.92092 4.28343,-4.43116 7.20435,-3.37322c2.92092,1.05794 4.43116,4.28343 3.37322,7.20435c-1.05794,2.92092 -4.28343,4.43116 -7.20435,3.37322c-2.92092,-1.05794 -4.43116,-4.28343 -3.37322,-7.20435z"/><path d="M214.51375,233.84873c1.05794,-2.92092 4.28343,-4.43116 7.20435,-3.37322c2.92092,1.05794 4.43116,4.28343 3.37322,7.20435c-1.05794,2.92092 -4.28343,4.43116 -7.20435,3.37322c-2.92092,-1.05794 -4.43116,-4.28343 -3.37322,-7.20435z"/><path d="M281.58311,137.33758c2.36874,-2.00999 5.9184,-1.71916 7.92838,0.64958c2.00999,2.36874 1.71916,5.9184 -0.64957,7.92838c-2.36874,2.00999 -5.9184,1.71916 -7.92838,-0.64958c-2.00999,-2.36874 -1.71916,-5.9184 0.64957,-7.92838z"/><path d="M191.1381,214.0844c2.36874,-2.00999 5.91841,-1.71916 7.92838,0.64958c2.00999,2.36874 1.71916,5.9184 -0.64957,7.92838c-2.36874,2.00999 -5.91841,1.71916 -7.92838,-0.64958c-2.00999,-2.36874 -1.71916,-5.9184 0.64957,-7.92838z"/><path d="M297.40347,164.06008c3.05845,-0.54486 5.9795,1.49282 6.52435,4.55126c0.54486,3.05845 -1.49282,5.9795 -4.55126,6.52435c-3.05845,0.54486 -5.97951,-1.49281 -6.52436,-4.55126c-0.54486,-3.05845 1.49282,-5.9795 4.55126,-6.52435z"/><path d="M180.62346,184.86423c3.05845,-0.54486 5.9795,1.49282 6.52435,4.55126c0.54486,3.05845 -1.49282,5.9795 -4.55126,6.52435c-3.05845,0.54486 -5.97951,-1.49281 -6.52436,-4.55126c-0.54486,-3.05845 1.49282,-5.9795 4.55126,-6.52435z"/><path d="M297.65361,195.00985c2.91906,1.06306 4.42364,4.2912 3.36057,7.21026c-1.06306,2.91906 -4.2912,4.42364 -7.21026,3.36057c-2.91906,-1.06306 -4.42364,-4.2912 -3.36057,-7.21026c1.06306,-2.91906 4.2912,-4.42364 7.21026,-3.36057z"/><path d="M186.19607,154.41932c2.91906,1.06306 4.42364,4.2912 3.36058,7.21025c-1.06306,2.91906 -4.2912,4.42364 -7.21026,3.36057c-2.91906,-1.06306 -4.42364,-4.2912 -3.36057,-7.21026c1.06306,-2.91906 4.2912,-4.42363 7.21026,-3.36057z"/><path d="M230.80362,127.10918c-3.06067,0.53219 -5.97327,-1.51757 -6.50544,-4.57825c-0.53218,-3.06067 1.51758,-5.97327 4.57826,-6.50544c3.06067,-0.53219 5.97327,1.51757 6.50544,4.57825c0.53218,3.06067 -1.51758,5.97326 -4.57826,6.50543z" data-paper-data="{&quot;index&quot;:null}"/><path d="M251.12358,243.97441c-3.06067,0.53219 -5.97327,-1.51757 -6.50544,-4.57825c-0.53218,-3.06067 1.51758,-5.97327 4.57826,-6.50544c3.06067,-0.53219 5.97327,1.51757 6.50544,4.57825c0.53218,3.06067 -1.51758,5.97327 -4.57826,6.50544z" data-paper-data="{&quot;index&quot;:null}"/><path d="M205.43592,138.92285c-2.37704,2.00015 -5.92547,1.69462 -7.92562,-0.68243c-2.00015,-2.37704 -1.69462,-5.92547 0.68243,-7.92562c2.37704,-2.00015 5.92547,-1.69462 7.92562,0.68243c2.00015,2.37704 1.69462,5.92547 -0.68243,7.92562z" data-paper-data="{&quot;index&quot;:null}"/><path d="M281.80728,229.68515c-2.37704,2.00015 -5.92547,1.69462 -7.92562,-0.68243c-2.00015,-2.37704 -1.69462,-5.92547 0.68243,-7.92562c2.37704,-2.00015 5.92547,-1.69462 7.92562,0.68243c2.00015,2.37704 1.69462,5.92547 -0.68243,7.92562z" data-paper-data="{&quot;index&quot;:null}"/></g></g></g></svg>