<svg version="1.1" xmlns="http://www.w3.org/2000/svg" xmlns:xlink="http://www.w3.org/1999/xlink" width="109.37632" height="109.37631" viewBox="0,0,109.37632,109.37631"><g transform="translate(-185.31184,-125.31185)"><g data-paper-data="{&quot;isPaintingLayer&quot;:true}" fill="none" fill-rule="nonzero" stroke="#ff7d7d" stroke-width="2" stroke-linecap="butt" stroke-linejoin="miter" stroke-miterlimit="10" stroke-dasharray="" stroke-dashoffset="0" style="mix-blend-mode: normal"><path d="M262.5714,228.72714c-6.86183,3.18389 -14.50908,4.96102 -22.5714,4.96102c-29.65115,0 -53.68816,-24.03701 -53.68816,-53.68816c0,-9.57277 2.50537,-18.56038 6.89619,-26.34289"/><path d="M205.93917,138.49765c9.26737,-7.61458 21.13027,-12.1858 34.06083,-12.1858c20.28374,0 37.94027,11.24847 47.07195,27.8478"/><path d="M293.25326,173.13421c0.28697,2.24811 0.4349,4.53967 0.4349,6.86579c0,14.44932 -5.70811,27.56544 -14.99239,37.21643"/><path d="M257.43255,221.37604c-5.35965,2.26088 -11.25014,3.51078 -17.43255,3.51078c-24.79031,0 -44.88682,-20.09651 -44.88682,-44.88682c0,-7.45406 1.81695,-14.48374 5.03212,-20.67033"/><path d="M213.00429,144.13513c7.5129,-5.66395 16.86215,-9.02195 26.99571,-9.02195c16.34433,0 30.64836,8.73557 38.49788,21.7925"/><path d="M284.70657,175.94991c0.11931,1.33408 0.18025,2.68497 0.18025,4.05009c0,11.51949 -4.33934,22.02548 -11.47258,29.97252"/><path d="M249.95186,211.32427c-3.13921,0.99645 -6.48275,1.53406 -9.95186,1.53406c-18.14715,0 -32.85832,-14.71117 -32.85832,-32.85832c0,-4.53656 0.91935,-8.85839 2.58192,-12.78934"/><path d="M222.46035,152.20955c5.07521,-3.20989 11.09045,-5.06787 17.53965,-5.06787c10.77797,0 20.34393,5.18925 26.33571,13.20558"/><path d="M272.85283,179.39324c0.00365,0.20181 0.00549,0.40407 0.00549,0.60676c0,7.44438 -2.47564,14.31054 -6.64855,19.82012"/></g></g></svg>