<svg version="1.1" xmlns="http://www.w3.org/2000/svg" xmlns:xlink="http://www.w3.org/1999/xlink" width="129.86842" height="129.86862" viewBox="0,0,129.86842,129.86862"><g transform="translate(-175.06579,-115.06574)"><g data-paper-data="{&quot;isPaintingLayer&quot;:true}" fill="#ff0000" fill-rule="nonzero" stroke="none" stroke-width="0" stroke-linecap="butt" stroke-linejoin="miter" stroke-miterlimit="10" stroke-dasharray="" stroke-dashoffset="0" style="mix-blend-mode: normal"><path d="M234.37501,120.69075c0,-3.1066 2.5184,-5.625 5.625,-5.625c3.1066,0 5.625,2.5184 5.625,5.625c0,3.1066 -2.5184,5.625 -5.625,5.625c-3.1066,0 -5.625,-2.5184 -5.625,-5.625z"/><path d="M234.37501,239.30937c0,-3.1066 2.5184,-5.625 5.625,-5.625c3.1066,0 5.625,2.5184 5.625,5.625c0,3.1066 -2.5184,5.625 -5.625,5.625c-3.1066,0 -5.625,-2.5184 -5.625,-5.625z"/><path d="M264.56916,125.72674c1.54266,-2.69651 4.9792,-3.63188 7.6757,-2.08921c2.69651,1.54266 3.63188,4.9792 2.08922,7.6757c-1.54266,2.69651 -4.9792,3.63188 -7.6757,2.08921c-2.69651,-1.54266 -3.63188,-4.9792 -2.08922,-7.6757z"/><path d="M205.66592,228.68683c1.54266,-2.69651 4.9792,-3.63188 7.6757,-2.08921c2.69651,1.54266 3.63188,4.9792 2.08922,7.6757c-1.54266,2.69651 -4.9792,3.63188 -7.6757,2.08921c-2.69651,-1.54266 -3.63188,-4.9792 -2.08922,-7.6757z"/><path d="M288.54411,145.46445c2.69009,-1.55383 6.13047,-0.6327 7.68429,2.05739c1.55383,2.69009 0.6327,6.13047 -2.05739,7.68429c-2.69009,1.55383 -6.13047,0.6327 -7.68429,-2.05739c-1.55383,-2.69009 -0.6327,-6.13047 2.05739,-7.68429z"/><path d="M185.82898,204.79391c2.69009,-1.55383 6.13047,-0.6327 7.68429,2.05739c1.55383,2.69009 0.6327,6.13047 -2.05739,7.68429c-2.69009,1.55383 -6.13047,0.6327 -7.68429,-2.05739c-1.55383,-2.69009 -0.6327,-6.13047 2.05739,-7.68429z"/><path d="M299.31908,174.47911c3.1066,0.00545 5.62057,2.52826 5.61512,5.63486c-0.00545,3.1066 -2.52826,5.62057 -5.63486,5.61512c-3.1066,-0.00545 -5.62057,-2.52826 -5.61512,-5.63486c0.00545,-3.1066 2.52826,-5.62057 5.63486,-5.61512z"/><path d="M180.70066,174.27101c3.1066,0.00545 5.62057,2.52826 5.61512,5.63486c-0.00545,3.1066 -2.52826,5.62057 -5.63486,5.61512c-3.1066,-0.00545 -5.62057,-2.52826 -5.61512,-5.63486c0.00545,-3.1066 2.52826,-5.62057 5.63486,-5.61512z"/><path d="M213.34162,133.4024c-2.6965,1.54267 -6.13304,0.6073 -7.6757,-2.08921c-1.54266,-2.6965 -0.60729,-6.13304 2.08922,-7.6757c2.6965,-1.54267 6.13304,-0.6073 7.6757,2.08921c1.54266,2.6965 0.60729,6.13304 -2.08922,7.6757z" data-paper-data="{&quot;index&quot;:null}"/><path d="M272.24485,236.36253c-2.6965,1.54267 -6.13304,0.6073 -7.6757,-2.08921c-1.54266,-2.6965 -0.60729,-6.13304 2.08922,-7.6757c2.6965,-1.54267 6.13304,-0.6073 7.6757,2.08921c1.54266,2.6965 0.60729,6.13304 -2.08922,7.6757z" data-paper-data="{&quot;index&quot;:null}"/><path d="M193.51327,153.14878c-1.55382,2.69009 -4.9942,3.61122 -7.68429,2.05739c-2.69009,-1.55382 -3.61122,-4.9942 -2.05739,-7.68429c1.55382,-2.69009 4.9942,-3.61122 7.68429,-2.05739c2.69009,1.55382 3.61122,4.9942 2.05739,7.68429z" data-paper-data="{&quot;index&quot;:null}"/><path d="M296.22841,212.4782c-1.55382,2.69009 -4.9942,3.61122 -7.68429,2.05739c-2.69009,-1.55382 -3.61122,-4.9942 -2.05739,-7.68429c1.55382,-2.69009 4.9942,-3.61122 7.68429,-2.05739c2.69009,1.55382 3.61122,4.9942 2.05739,7.68429z" data-paper-data="{&quot;index&quot;:null}"/><path d="M175.5,180.00001c0,-35.62237 28.87763,-64.5 64.5,-64.5c35.62237,0 64.5,28.87763 64.5,64.5c0,35.62237 -28.87763,64.5 -64.5,64.5c-35.62237,0 -64.5,-28.87763 -64.5,-64.5z"/></g></g></svg>