<svg version="1.1" xmlns="http://www.w3.org/2000/svg" xmlns:xlink="http://www.w3.org/1999/xlink" width="152.49108" height="152.66392" viewBox="0,0,152.49108,152.66392"><g transform="translate(-163.52332,-103.76559)"><g data-paper-data="{&quot;isPaintingLayer&quot;:true}" fill="none" fill-rule="nonzero" stroke="#ff6464" stroke-width="4.5" stroke-linecap="butt" stroke-linejoin="miter" stroke-miterlimit="10" stroke-dasharray="" stroke-dashoffset="0" style="mix-blend-mode: normal"><path d="M238.5,179c0,-27.12958 -10.28427,-43.93146 1.5,-67.5c11.78427,-23.56854 0.5,34.699 0.5,63.5c0,28.801 12.32837,47.84327 -0.5,73.5c-12.82837,25.65673 -1.5,-42.37042 -1.5,-69.5z"/><path d="M241.05412,178.63796c0.00001,0 44.30234,-8.55129 67.3891,4.14849c23.08676,12.69978 -34.69215,-0.86247 -63.47068,-1.99301c-28.77853,-1.13054 -48.29032,10.44079 -73.42373,-3.38479c-25.13341,-13.82558 38.01189,0.67231 69.50532,1.22932c31.49343,0.55701 -0.00002,-0.00001 -0.00001,-0.00001z"/><path d="M239.49697,178.49192c19.76364,-18.58529 24.95833,-37.58755 50.20068,-45.14856c25.24235,-7.56101 -24.93535,24.13502 -45.9166,43.86532c-20.98125,19.7303 -26.40773,41.75645 -53.88657,49.98738c-27.47884,8.23093 29.83885,-30.11885 49.60249,-48.70414z"/><path d="M241.78493,179.8424c19.03122,19.33461 38.14701,24.09455 46.28179,49.15788c8.13477,25.06333 -24.69746,-24.37839 -44.90117,-44.90418c-20.20371,-20.52579 -42.3479,-25.44848 -51.20342,-52.73244c-8.85552,-27.28397 30.79158,29.14414 49.8228,48.47875z"/></g></g></svg>