<svg version="1.1" xmlns="http://www.w3.org/2000/svg" xmlns:xlink="http://www.w3.org/1999/xlink" width="246.86842" height="246.8688" viewBox="0,0,246.86842,246.8688"><g transform="translate(-116.56579,-56.5656)"><g data-paper-data="{&quot;isPaintingLayer&quot;:true}" fill="#ff0000" fill-rule="nonzero" stroke="none" stroke-width="0" stroke-linecap="butt" stroke-linejoin="miter" stroke-miterlimit="10" stroke-dasharray="" stroke-dashoffset="0" style="mix-blend-mode: normal"><g><path d="M229.30739,67.25823c0,-5.90537 4.78726,-10.69263 10.69263,-10.69263c5.90537,0 10.69263,4.78726 10.69263,10.69263c0,5.90537 -4.78726,10.69263 -10.69263,10.69263c-5.90537,0 -10.69263,-4.78726 -10.69263,-10.69263z"/><path d="M229.30739,292.74177c0,-5.90537 4.78726,-10.69263 10.69263,-10.69263c5.90537,0 10.69263,4.78726 10.69263,10.69263c0,5.90537 -4.78726,10.69263 -10.69263,10.69263c-5.90537,0 -10.69263,-4.78726 -10.69263,-10.69263z"/><path d="M286.70381,76.8312c2.93246,-5.12583 9.46502,-6.90388 14.59083,-3.9714c5.12583,2.93246 6.90388,9.46502 3.97142,14.59083c-2.93246,5.12583 -9.46502,6.90388 -14.59083,3.9714c-5.12583,-2.93246 -6.90388,-9.46502 -3.97142,-14.59083z"/><path d="M174.73394,272.5493c2.93246,-5.12583 9.46502,-6.90388 14.59083,-3.9714c5.12583,2.93246 6.90388,9.46502 3.97142,14.59083c-2.93246,5.12583 -9.46502,6.90388 -14.59083,3.9714c-5.12583,-2.93246 -6.90388,-9.46502 -3.97142,-14.59083z"/><path d="M332.27808,114.35091c5.11362,-2.95369 11.65348,-1.20271 14.60716,3.91092c2.95369,5.11362 1.20271,11.65348 -3.91092,14.60716c-5.11362,2.95369 -11.65348,1.20271 -14.60716,-3.91092c-2.95369,-5.11362 -1.20271,-11.65348 3.91092,-14.60716z"/><path d="M137.02566,227.13092c5.11362,-2.95369 11.65348,-1.20271 14.60716,3.91092c2.95369,5.11362 1.20271,11.65348 -3.91092,14.60716c-5.11362,2.95369 -11.65348,1.20271 -14.60716,-3.91092c-2.95369,-5.11362 -1.20271,-11.65348 3.91092,-14.60716z"/><path d="M352.76034,169.50518c5.90537,0.01036 10.68421,4.806 10.67385,10.71137c-0.01036,5.90537 -4.806,10.68421 -10.71137,10.67385c-5.90537,-0.01036 -10.68421,-4.806 -10.67385,-10.71137c0.01036,-5.90537 4.806,-10.68421 10.71137,-10.67385z"/><path d="M127.27718,169.1096c5.90537,0.01036 10.68421,4.806 10.67385,10.71137c-0.01036,5.90537 -4.806,10.68421 -10.71137,10.67385c-5.90537,-0.01036 -10.68421,-4.806 -10.67385,-10.71137c0.01036,-5.90537 4.806,-10.68421 10.71137,-10.67385z"/><path d="M189.32477,91.42201c-5.12581,2.93248 -11.65837,1.15442 -14.59083,-3.9714c-2.93246,-5.12581 -1.1544,-11.65837 3.97142,-14.59083c5.12581,-2.93248 11.65837,-1.15442 14.59083,3.9714c2.93246,5.12581 1.1544,11.65837 -3.97142,14.59083z" data-paper-data="{&quot;index&quot;:null}"/><path d="M301.29462,287.14013c-5.12581,2.93248 -11.65837,1.15442 -14.59083,-3.9714c-2.93246,-5.12581 -1.1544,-11.65837 3.97142,-14.59083c5.12581,-2.93248 11.65837,-1.15442 14.59083,3.9714c2.93246,5.12581 1.1544,11.65837 -3.97142,14.59083z" data-paper-data="{&quot;index&quot;:null}"/><path d="M151.63282,128.95808c-2.95367,5.11362 -9.49353,6.86461 -14.60716,3.91092c-5.11362,-2.95367 -6.86461,-9.49353 -3.91092,-14.60716c2.95367,-5.11362 9.49353,-6.86461 14.60716,-3.91092c5.11362,2.95367 6.86461,9.49353 3.91092,14.60716z" data-paper-data="{&quot;index&quot;:null}"/><path d="M346.88525,241.73808c-2.95367,5.11362 -9.49353,6.86461 -14.60716,3.91092c-5.11362,-2.95367 -6.86461,-9.49353 -3.91092,-14.60716c2.95367,-5.11362 9.49353,-6.86461 14.60716,-3.91092c5.11362,2.95367 6.86461,9.49353 3.91092,14.60716z" data-paper-data="{&quot;index&quot;:null}"/></g></g></g></svg>