<svg version="1.1" xmlns="http://www.w3.org/2000/svg" xmlns:xlink="http://www.w3.org/1999/xlink" width="155.86842" height="155.86866" viewBox="0,0,155.86842,155.86866"><g transform="translate(-162.06579,-102.06567)"><g data-paper-data="{&quot;isPaintingLayer&quot;:true}" fill="#ff0000" fill-rule="nonzero" stroke-width="2" stroke-linejoin="miter" stroke-miterlimit="10" stroke-dasharray="" stroke-dashoffset="0" style="mix-blend-mode: normal"><path d="M233.24887,108.81681c0,-3.72855 3.02259,-6.75114 6.75114,-6.75114c3.72855,0 6.75114,3.02259 6.75114,6.75114c0,3.72855 -3.02259,6.75114 -6.75114,6.75114c-3.72855,0 -6.75114,-3.02259 -6.75114,-6.75114z" stroke="none" stroke-linecap="butt"/><path d="M233.24887,251.18319c0,-3.72855 3.02259,-6.75114 6.75114,-6.75114c3.72855,0 6.75114,3.02259 6.75114,6.75114c0,3.72855 -3.02259,6.75114 -6.75114,6.75114c-3.72855,0 -6.75114,-3.02259 -6.75114,-6.75114z" stroke="none" stroke-linecap="butt"/><path d="M269.48797,114.86102c1.8515,-3.23636 5.97605,-4.35899 9.2124,-2.50748c3.23636,1.8515 4.35899,5.97605 2.50749,9.2124c-1.8515,3.23636 -5.97605,4.35899 -9.2124,2.50748c-3.23636,-1.8515 -4.35899,-5.97605 -2.50749,-9.2124z" stroke="none" stroke-linecap="butt"/><path d="M198.79215,238.434c1.8515,-3.23636 5.97605,-4.35899 9.2124,-2.50748c3.23636,1.8515 4.35899,5.97605 2.50749,9.2124c-1.8515,3.23636 -5.97605,4.35899 -9.2124,2.50748c-3.23636,-1.8515 -4.35899,-5.97605 -2.50749,-9.2124z" stroke="none" stroke-linecap="butt"/><path d="M298.26277,138.55028c3.22865,-1.86491 7.35781,-0.75937 9.22271,2.46928c1.86491,3.22865 0.75937,7.35781 -2.46928,9.22271c-3.22865,1.86491 -7.35781,0.75937 -9.22271,-2.46928c-1.86491,-3.22865 -0.75937,-7.35781 2.46928,-9.22271z" stroke="none" stroke-linecap="butt"/><path d="M174.9838,209.75764c3.22865,-1.86491 7.35781,-0.75937 9.22271,2.46928c1.86491,3.22865 0.75937,7.35781 -2.46928,9.22271c-3.22865,1.86491 -7.35781,0.75937 -9.22271,-2.46928c-1.86491,-3.22865 -0.75937,-7.35781 2.46928,-9.22271z" stroke="none" stroke-linecap="butt"/><path d="M311.19492,173.37375c3.72855,0.00654 6.74582,3.03442 6.73928,6.76297c-0.00654,3.72855 -3.03442,6.74582 -6.76297,6.73928c-3.72855,-0.00654 -6.74582,-3.03442 -6.73928,-6.76297c0.00654,-3.72855 3.03442,-6.74582 6.76297,-6.73928z" stroke="none" stroke-linecap="butt"/><path d="M168.82878,173.12399c3.72855,0.00654 6.74582,3.03442 6.73928,6.76297c-0.00654,3.72855 -3.03442,6.74582 -6.76297,6.73928c-3.72855,-0.00654 -6.74582,-3.03442 -6.73928,-6.76297c0.00654,-3.72855 3.03442,-6.74582 6.76297,-6.73928z" stroke="none" stroke-linecap="butt"/><path d="M208.00454,124.07338c-3.23635,1.85152 -7.36089,0.72888 -9.2124,-2.50748c-1.8515,-3.23635 -0.72887,-7.36089 2.50749,-9.2124c3.23635,-1.85152 7.36089,-0.72888 9.2124,2.50748c1.8515,3.23635 0.72887,7.36089 -2.50749,9.2124z" data-paper-data="{&quot;index&quot;:null}" stroke="none" stroke-linecap="butt"/><path d="M278.70035,247.6464c-3.23635,1.85152 -7.36089,0.72888 -9.2124,-2.50748c-1.8515,-3.23635 -0.72887,-7.36089 2.50749,-9.2124c3.23635,-1.85152 7.36089,-0.72888 9.2124,2.50748c1.8515,3.23635 0.72887,7.36089 -2.50749,9.2124z" data-paper-data="{&quot;index&quot;:null}" stroke="none" stroke-linecap="butt"/><path d="M184.2065,147.77302c-1.8649,3.22865 -5.99405,4.3342 -9.22271,2.46928c-3.22865,-1.8649 -4.3342,-5.99405 -2.46928,-9.22271c1.8649,-3.22865 5.99405,-4.3342 9.22271,-2.46928c3.22865,1.8649 4.3342,5.99405 2.46928,9.22271z" data-paper-data="{&quot;index&quot;:null}" stroke="none" stroke-linecap="butt"/><path d="M307.48549,218.98035c-1.8649,3.22865 -5.99405,4.3342 -9.22271,2.46928c-3.22865,-1.8649 -4.3342,-5.99405 -2.46928,-9.22271c1.8649,-3.22865 5.99405,-4.3342 9.22271,-2.46928c3.22865,1.8649 4.3342,5.99405 2.46928,9.22271z" data-paper-data="{&quot;index&quot;:null}" stroke="none" stroke-linecap="butt"/><path d="M239.3999,250.01178l-2.40041,-142.82411" stroke="#ff0000" stroke-linecap="round"/><path d="M273.00557,117.98949l-67.21135,124.82107" stroke="#ff0000" stroke-linecap="round"/><path d="M300.61023,145.59415l-122.42067,68.41155" stroke="#ff0000" stroke-linecap="round"/><path d="M309.01165,181.60023l-139.22351,-1.2002" stroke="#ff0000" stroke-linecap="round"/><path d="M270.60517,239.20996l-63.61074,-123.62087" stroke="#ff0000" stroke-linecap="round"/><path d="M300.61023,215.2059l-121.22047,-70.81196" stroke="#ff0000" stroke-linecap="round"/></g></g></svg>