<svg version="1.1" xmlns="http://www.w3.org/2000/svg" xmlns:xlink="http://www.w3.org/1999/xlink" width="129.86842" height="129.86868" viewBox="0,0,129.86842,129.86868"><g transform="translate(-175.06579,-115.06569)"><g data-paper-data="{&quot;isPaintingLayer&quot;:true}" fill-rule="nonzero" stroke="none" stroke-width="0" stroke-linecap="butt" stroke-linejoin="miter" stroke-miterlimit="10" stroke-dasharray="" stroke-dashoffset="0" style="mix-blend-mode: normal"><g fill="#ff0000"><g><path d="M234.37501,120.69075c0,-3.1066 2.5184,-5.625 5.625,-5.625c3.1066,0 5.625,2.5184 5.625,5.625c0,3.1066 -2.5184,5.625 -5.625,5.625c-3.1066,0 -5.625,-2.5184 -5.625,-5.625z"/><path d="M234.37501,239.30937c0,-3.1066 2.5184,-5.625 5.625,-5.625c3.1066,0 5.625,2.5184 5.625,5.625c0,3.1066 -2.5184,5.625 -5.625,5.625c-3.1066,0 -5.625,-2.5184 -5.625,-5.625z"/><path d="M264.56916,125.72674c1.54266,-2.69651 4.9792,-3.63188 7.6757,-2.08921c2.69651,1.54266 3.63188,4.9792 2.08922,7.6757c-1.54266,2.69651 -4.9792,3.63188 -7.6757,2.08921c-2.69651,-1.54266 -3.63188,-4.9792 -2.08922,-7.6757z"/><path d="M205.66592,228.68684c1.54266,-2.69651 4.9792,-3.63188 7.6757,-2.08921c2.69651,1.54266 3.63188,4.9792 2.08922,7.6757c-1.54266,2.69651 -4.9792,3.63188 -7.6757,2.08921c-2.69651,-1.54266 -3.63188,-4.9792 -2.08922,-7.6757z"/><path d="M288.54411,145.46445c2.69009,-1.55383 6.13047,-0.6327 7.68429,2.05739c1.55383,2.69009 0.6327,6.13047 -2.05739,7.68429c-2.69009,1.55383 -6.13047,0.6327 -7.68429,-2.05739c-1.55383,-2.69009 -0.6327,-6.13047 2.05739,-7.68429z"/><path d="M185.82898,204.79391c2.69009,-1.55383 6.13047,-0.6327 7.68429,2.05739c1.55383,2.69009 0.6327,6.13047 -2.05739,7.68429c-2.69009,1.55383 -6.13047,0.6327 -7.68429,-2.05739c-1.55383,-2.69009 -0.6327,-6.13047 2.05739,-7.68429z"/><path d="M299.31908,174.47912c3.1066,0.00545 5.62057,2.52826 5.61512,5.63486c-0.00545,3.1066 -2.52826,5.62057 -5.63486,5.61512c-3.1066,-0.00545 -5.62057,-2.52826 -5.61512,-5.63486c0.00545,-3.1066 2.52826,-5.62057 5.63486,-5.61512z"/><path d="M180.70066,174.27102c3.1066,0.00545 5.62057,2.52826 5.61512,5.63486c-0.00545,3.1066 -2.52826,5.62057 -5.63486,5.61512c-3.1066,-0.00545 -5.62057,-2.52826 -5.61512,-5.63486c0.00545,-3.1066 2.52826,-5.62057 5.63486,-5.61512z"/><path d="M213.34162,133.4024c-2.6965,1.54267 -6.13304,0.6073 -7.6757,-2.08921c-1.54266,-2.6965 -0.60729,-6.13304 2.08922,-7.6757c2.6965,-1.54267 6.13304,-0.6073 7.6757,2.08921c1.54266,2.6965 0.60729,6.13304 -2.08922,7.6757z" data-paper-data="{&quot;index&quot;:null}"/><path d="M272.24485,236.36254c-2.6965,1.54267 -6.13304,0.6073 -7.6757,-2.08921c-1.54266,-2.6965 -0.60729,-6.13304 2.08922,-7.6757c2.6965,-1.54267 6.13304,-0.6073 7.6757,2.08921c1.54266,2.6965 0.60729,6.13304 -2.08922,7.6757z" data-paper-data="{&quot;index&quot;:null}"/><path d="M193.51327,153.14878c-1.55382,2.69009 -4.9942,3.61122 -7.68429,2.05739c-2.69009,-1.55382 -3.61122,-4.9942 -2.05739,-7.68429c1.55382,-2.69009 4.9942,-3.61122 7.68429,-2.05739c2.69009,1.55382 3.61122,4.9942 2.05739,7.68429z" data-paper-data="{&quot;index&quot;:null}"/><path d="M296.22841,212.4782c-1.55382,2.69009 -4.9942,3.61122 -7.68429,2.05739c-2.69009,-1.55382 -3.61122,-4.9942 -2.05739,-7.68429c1.55382,-2.69009 4.9942,-3.61122 7.68429,-2.05739c2.69009,1.55382 3.61122,4.9942 2.05739,7.68429z" data-paper-data="{&quot;index&quot;:null}"/><path d="M234.37501,120.69069c0,-3.1066 2.5184,-5.625 5.625,-5.625c3.1066,0 5.625,2.5184 5.625,5.625c0,3.1066 -2.5184,5.625 -5.625,5.625c-3.1066,0 -5.625,-2.5184 -5.625,-5.625z"/><path d="M234.37501,239.30931c0,-3.1066 2.5184,-5.625 5.625,-5.625c3.1066,0 5.625,2.5184 5.625,5.625c0,3.1066 -2.5184,5.625 -5.625,5.625c-3.1066,0 -5.625,-2.5184 -5.625,-5.625z"/><path d="M264.56916,125.72668c1.54266,-2.69651 4.9792,-3.63188 7.6757,-2.08921c2.69651,1.54266 3.63188,4.9792 2.08922,7.6757c-1.54266,2.69651 -4.9792,3.63188 -7.6757,2.08921c-2.69651,-1.54266 -3.63188,-4.9792 -2.08922,-7.6757z"/><path d="M205.66592,228.68678c1.54266,-2.69651 4.9792,-3.63188 7.6757,-2.08921c2.69651,1.54266 3.63188,4.9792 2.08922,7.6757c-1.54266,2.69651 -4.9792,3.63188 -7.6757,2.08921c-2.69651,-1.54266 -3.63188,-4.9792 -2.08922,-7.6757z"/><path d="M288.54411,145.4644c2.69009,-1.55383 6.13047,-0.6327 7.68429,2.05739c1.55383,2.69009 0.6327,6.13047 -2.05739,7.68429c-2.69009,1.55383 -6.13047,0.6327 -7.68429,-2.05739c-1.55383,-2.69009 -0.6327,-6.13047 2.05739,-7.68429z"/><path d="M185.82898,204.79385c2.69009,-1.55383 6.13047,-0.6327 7.68429,2.05739c1.55383,2.69009 0.6327,6.13047 -2.05739,7.68429c-2.69009,1.55383 -6.13047,0.6327 -7.68429,-2.05739c-1.55383,-2.69009 -0.6327,-6.13047 2.05739,-7.68429z"/><path d="M299.31908,174.47906c3.1066,0.00545 5.62057,2.52826 5.61512,5.63486c-0.00545,3.1066 -2.52826,5.62057 -5.63486,5.61512c-3.1066,-0.00545 -5.62057,-2.52826 -5.61512,-5.63486c0.00545,-3.1066 2.52826,-5.62057 5.63486,-5.61512z"/><path d="M180.70066,174.27096c3.1066,0.00545 5.62057,2.52826 5.61512,5.63486c-0.00545,3.1066 -2.52826,5.62057 -5.63486,5.61512c-3.1066,-0.00545 -5.62057,-2.52826 -5.61512,-5.63486c0.00545,-3.1066 2.52826,-5.62057 5.63486,-5.61512z"/><path d="M213.34162,133.40235c-2.6965,1.54267 -6.13304,0.6073 -7.6757,-2.08921c-1.54266,-2.6965 -0.60729,-6.13304 2.08922,-7.6757c2.6965,-1.54267 6.13304,-0.6073 7.6757,2.08921c1.54266,2.6965 0.60729,6.13304 -2.08922,7.6757z" data-paper-data="{&quot;index&quot;:null}"/><path d="M272.24485,236.36248c-2.6965,1.54267 -6.13304,0.6073 -7.6757,-2.08921c-1.54266,-2.6965 -0.60729,-6.13304 2.08922,-7.6757c2.6965,-1.54267 6.13304,-0.6073 7.6757,2.08921c1.54266,2.6965 0.60729,6.13304 -2.08922,7.6757z" data-paper-data="{&quot;index&quot;:null}"/><path d="M193.51327,153.14872c-1.55382,2.69009 -4.9942,3.61122 -7.68429,2.05739c-2.69009,-1.55382 -3.61122,-4.9942 -2.05739,-7.68429c1.55382,-2.69009 4.9942,-3.61122 7.68429,-2.05739c2.69009,1.55382 3.61122,4.9942 2.05739,7.68429z" data-paper-data="{&quot;index&quot;:null}"/><path d="M296.22841,212.47814c-1.55382,2.69009 -4.9942,3.61122 -7.68429,2.05739c-2.69009,-1.55382 -3.61122,-4.9942 -2.05739,-7.68429c1.55382,-2.69009 4.9942,-3.61122 7.68429,-2.05739c2.69009,1.55382 3.61122,4.9942 2.05739,7.68429z" data-paper-data="{&quot;index&quot;:null}"/></g><g><path d="M235.1763,129.13941c0,-2.66406 2.15965,-4.82371 4.82371,-4.82371c2.66406,0 4.82371,2.15965 4.82371,4.82371c0,2.66406 -2.15965,4.82371 -4.82371,4.82371c-2.66406,0 -4.82371,-2.15965 -4.82371,-4.82371z"/><path d="M235.1763,230.86064c0,-2.66406 2.15965,-4.82371 4.82371,-4.82371c2.66406,0 4.82371,2.15965 4.82371,4.82371c0,2.66406 -2.15965,4.82371 -4.82371,4.82371c-2.66406,0 -4.82371,-2.15965 -4.82371,-4.82371z"/><path d="M261.06925,133.45801c1.3229,-2.31239 4.2699,-3.11451 6.58229,-1.7916c2.31239,1.3229 3.11451,4.26991 1.79161,6.58229c-1.3229,2.31239 -4.26991,3.11451 -6.58229,1.7916c-2.31239,-1.3229 -3.11451,-4.26991 -1.79161,-6.58229z"/><path d="M210.55686,221.75131c1.3229,-2.31239 4.26991,-3.11451 6.58229,-1.7916c2.31239,1.3229 3.11451,4.2699 1.7916,6.58228c-1.3229,2.31239 -4.2699,3.11451 -6.58228,1.7916c-2.31239,-1.3229 -3.11451,-4.2699 -1.79161,-6.58228z"/><path d="M281.62894,150.38407c2.30689,-1.33248 5.25718,-0.54257 6.58965,1.76432c1.33249,2.30688 0.54257,5.25718 -1.76431,6.58965c-2.30689,1.33248 -5.25718,0.54257 -6.58965,-1.76431c-1.33249,-2.30688 -0.54257,-5.25718 1.76431,-6.58965z"/><path d="M193.54572,201.26196c2.30688,-1.33248 5.25718,-0.54257 6.58965,1.76432c1.33248,2.30688 0.54257,5.25717 -1.76431,6.58965c-2.30688,1.33248 -5.25718,0.54257 -6.58965,-1.76431c-1.33248,-2.30688 -0.54257,-5.25718 1.76431,-6.58965z"/><path d="M290.869,175.26555c2.66406,0.00467 4.81992,2.1681 4.81524,4.83217c-0.00468,2.66406 -2.1681,4.81992 -4.83216,4.81524c-2.66406,-0.00467 -4.81992,-2.1681 -4.81524,-4.83217c0.00468,-2.66406 2.1681,-4.81992 4.83216,-4.81524z"/><path d="M189.14793,175.0871c2.66406,0.00467 4.81991,2.1681 4.81524,4.83217c-0.00467,2.66406 -2.1681,4.81991 -4.83217,4.81524c-2.66406,-0.00467 -4.81991,-2.16811 -4.81524,-4.83217c0.00467,-2.66406 2.1681,-4.81991 4.83217,-4.81524z"/><path d="M217.13915,140.04028c-2.31238,1.32291 -5.25939,0.52079 -6.58229,-1.7916c-1.3229,-2.31238 -0.52078,-5.25938 1.79161,-6.58228c2.31238,-1.32291 5.25938,-0.52079 6.58228,1.7916c1.3229,2.31238 0.52079,5.25939 -1.7916,6.58229z" data-paper-data="{&quot;index&quot;:null}"/><path d="M267.65153,228.33359c-2.31238,1.32291 -5.25938,0.52079 -6.58229,-1.7916c-1.3229,-2.31238 -0.52078,-5.25938 1.79161,-6.58228c2.31238,-1.32291 5.25938,-0.52079 6.58228,1.7916c1.3229,2.31238 0.52078,5.25938 -1.79161,6.58228z" data-paper-data="{&quot;index&quot;:null}"/><path d="M200.13537,156.97375c-1.33247,2.30688 -4.28277,3.09679 -6.58965,1.76431c-2.30688,-1.33247 -3.09679,-4.28277 -1.76431,-6.58965c1.33247,-2.30688 4.28277,-3.09679 6.58965,-1.76431c2.30688,1.33247 3.0968,4.28277 1.76431,6.58965z" data-paper-data="{&quot;index&quot;:null}"/><path d="M288.2186,207.85161c-1.33247,2.30688 -4.28276,3.09679 -6.58965,1.76431c-2.30689,-1.33247 -3.0968,-4.28276 -1.76432,-6.58965c1.33247,-2.30688 4.28277,-3.0968 6.58966,-1.76432c2.30689,1.33247 3.09679,4.28277 1.76431,6.58965z" data-paper-data="{&quot;index&quot;:null}"/><path d="M235.1763,129.13936c0,-2.66406 2.15965,-4.82371 4.82371,-4.82371c2.66406,0 4.82371,2.15965 4.82371,4.82371c0,2.66406 -2.15965,4.82371 -4.82371,4.82371c-2.66406,0 -4.82371,-2.15965 -4.82371,-4.82371z"/><path d="M235.1763,230.8606c0,-2.66406 2.15965,-4.82371 4.82371,-4.82371c2.66406,0 4.82371,2.15965 4.82371,4.82371c0,2.66406 -2.15965,4.82371 -4.82371,4.82371c-2.66406,0 -4.82371,-2.15965 -4.82371,-4.82371z"/><path d="M261.06925,133.45797c1.3229,-2.31239 4.2699,-3.11451 6.58229,-1.7916c2.31239,1.3229 3.11451,4.2699 1.79161,6.58228c-1.3229,2.31239 -4.26991,3.11451 -6.58229,1.7916c-2.31239,-1.3229 -3.11451,-4.2699 -1.79161,-6.58228z"/><path d="M210.55686,221.75126c1.3229,-2.31239 4.26991,-3.11451 6.58229,-1.7916c2.31239,1.3229 3.11451,4.2699 1.7916,6.58228c-1.3229,2.31239 -4.2699,3.11451 -6.58228,1.7916c-2.31239,-1.3229 -3.11451,-4.2699 -1.79161,-6.58228z"/><path d="M281.62894,150.38402c2.30689,-1.33248 5.25718,-0.54257 6.58965,1.76431c1.33249,2.30688 0.54257,5.25718 -1.76431,6.58966c-2.30689,1.33248 -5.25718,0.54257 -6.58965,-1.76432c-1.33249,-2.30688 -0.54257,-5.25718 1.76431,-6.58965z"/><path d="M193.54572,201.26191c2.30688,-1.33248 5.25718,-0.54257 6.58965,1.76431c1.33248,2.30688 0.54257,5.25718 -1.76431,6.58965c-2.30688,1.33248 -5.25718,0.54257 -6.58965,-1.76431c-1.33248,-2.30688 -0.54257,-5.25718 1.76431,-6.58965z"/><path d="M290.869,175.2655c2.66406,0.00467 4.81992,2.16811 4.81524,4.83217c-0.00468,2.66406 -2.1681,4.81991 -4.83216,4.81524c-2.66406,-0.00467 -4.81992,-2.1681 -4.81524,-4.83217c0.00468,-2.66406 2.1681,-4.81991 4.83216,-4.81524z"/><path d="M189.14793,175.08705c2.66406,0.00467 4.81991,2.1681 4.81524,4.83217c-0.00467,2.66406 -2.1681,4.81992 -4.83217,4.81524c-2.66406,-0.00467 -4.81991,-2.1681 -4.81524,-4.83217c0.00467,-2.66406 2.1681,-4.81992 4.83217,-4.81524z"/><path d="M217.13915,140.04023c-2.31238,1.32291 -5.25939,0.52079 -6.58229,-1.7916c-1.3229,-2.31238 -0.52078,-5.25938 1.79161,-6.58229c2.31238,-1.32291 5.25938,-0.52079 6.58228,1.7916c1.3229,2.31238 0.52079,5.25938 -1.7916,6.58228z" data-paper-data="{&quot;index&quot;:null}"/><path d="M267.65153,228.33355c-2.31238,1.32291 -5.25938,0.52079 -6.58229,-1.7916c-1.3229,-2.31238 -0.52078,-5.25938 1.79161,-6.58228c2.31238,-1.32291 5.25938,-0.52079 6.58228,1.7916c1.3229,2.31238 0.52078,5.25938 -1.79161,6.58228z" data-paper-data="{&quot;index&quot;:null}"/><path d="M200.13537,156.9737c-1.33247,2.30688 -4.28277,3.09679 -6.58965,1.76431c-2.30688,-1.33247 -3.09679,-4.28277 -1.76431,-6.58965c1.33247,-2.30688 4.28277,-3.0968 6.58965,-1.76432c2.30688,1.33247 3.0968,4.28277 1.76431,6.58966z" data-paper-data="{&quot;index&quot;:null}"/><path d="M288.2186,207.85156c-1.33247,2.30688 -4.28276,3.0968 -6.58965,1.76431c-2.30689,-1.33247 -3.0968,-4.28277 -1.76432,-6.58965c1.33247,-2.30688 4.28277,-3.09679 6.58966,-1.76431c2.30689,1.33247 3.09679,4.28277 1.76431,6.58965z" data-paper-data="{&quot;index&quot;:null}"/></g><g><path d="M235.6744,134.39132c0,-2.38897 1.93665,-4.32561 4.32561,-4.32561c2.38897,0 4.32561,1.93664 4.32561,4.32561c0,2.38897 -1.93664,4.32561 -4.32561,4.32561c-2.38897,0 -4.32561,-1.93664 -4.32561,-4.32561z"/><path d="M235.6744,225.60873c0,-2.38897 1.93665,-4.32561 4.32561,-4.32561c2.38897,0 4.32561,1.93664 4.32561,4.32561c0,2.38897 -1.93664,4.32561 -4.32561,4.32561c-2.38897,0 -4.32561,-1.93665 -4.32561,-4.32561z"/><path d="M258.89362,138.26398c1.1863,-2.07361 3.829,-2.79291 5.9026,-1.6066c2.07361,1.1863 2.79291,3.829 1.60661,5.9026c-1.1863,2.07361 -3.829,2.7929 -5.9026,1.60659c-2.07361,-1.1863 -2.79291,-3.82899 -1.60661,-5.90259z"/><path d="M213.59718,217.44003c1.1863,-2.07361 3.82899,-2.79291 5.90259,-1.6066c2.07361,1.1863 2.7929,3.829 1.60661,5.9026c-1.1863,2.07361 -3.82899,2.7929 -5.90259,1.60659c-2.07361,-1.1863 -2.7929,-3.82899 -1.60661,-5.90259z"/><path d="M277.33029,153.44224c2.06867,-1.19489 4.71431,-0.48655 5.9092,1.58212c1.19489,2.06867 0.48654,4.71431 -1.58213,5.9092c-2.06867,1.19489 -4.71432,0.48655 -5.9092,-1.58212c-1.19489,-2.06867 -0.48654,-4.71431 1.58213,-5.9092z"/><path d="M198.34263,199.06643c2.06867,-1.19489 4.71431,-0.48655 5.9092,1.58212c1.19489,2.06867 0.48654,4.71431 -1.58213,5.9092c-2.06867,1.19489 -4.71431,0.48654 -5.90919,-1.58213c-1.19489,-2.06867 -0.48655,-4.71431 1.58212,-5.9092z"/><path d="M285.61622,175.75444c2.38896,0.00419 4.3222,1.94422 4.31801,4.33319c-0.00419,2.38897 -1.94423,4.3222 -4.33319,4.31802c-2.38896,-0.00419 -4.3222,-1.94423 -4.31802,-4.3332c0.00419,-2.38897 1.94423,-4.3222 4.33319,-4.31801z"/><path d="M194.39896,175.59441c2.38897,0.00419 4.3222,1.94422 4.31802,4.33319c-0.00419,2.38897 -1.94423,4.3222 -4.33319,4.31802c-2.38897,-0.00419 -4.3222,-1.94423 -4.31801,-4.33319c0.00419,-2.38897 1.94422,-4.3222 4.33319,-4.31801z"/><path d="M219.49978,144.16655c-2.0736,1.18631 -4.7163,0.46701 -5.90259,-1.6066c-1.1863,-2.0736 -0.46701,-4.71629 1.60661,-5.90259c2.0736,-1.18631 4.7163,-0.46702 5.90259,1.60659c1.1863,2.0736 0.46701,4.7163 -1.60661,5.90259z" data-paper-data="{&quot;index&quot;:null}"/><path d="M264.79621,223.34262c-2.0736,1.18631 -4.71629,0.46702 -5.90259,-1.60659c-1.1863,-2.0736 -0.467,-4.7163 1.60661,-5.9026c2.0736,-1.18631 4.71629,-0.46701 5.90259,1.6066c1.1863,2.0736 0.467,4.71629 -1.60661,5.90259z" data-paper-data="{&quot;index&quot;:null}"/><path d="M204.25183,159.35145c-1.19488,2.06867 -3.84053,2.77702 -5.9092,1.58213c-2.06867,-1.19488 -2.77701,-3.84053 -1.58212,-5.9092c1.19488,-2.06867 3.84052,-2.77702 5.90919,-1.58213c2.06867,1.19488 2.77702,3.84053 1.58213,5.9092z" data-paper-data="{&quot;index&quot;:null}"/><path d="M283.2395,204.97563c-1.19488,2.06867 -3.84053,2.77702 -5.9092,1.58213c-2.06867,-1.19488 -2.77702,-3.84053 -1.58213,-5.9092c1.19488,-2.06867 3.84053,-2.77701 5.9092,-1.58212c2.06867,1.19488 2.77702,3.84053 1.58213,5.9092z" data-paper-data="{&quot;index&quot;:null}"/><path d="M235.6744,134.39128c0,-2.38897 1.93665,-4.32561 4.32561,-4.32561c2.38897,0 4.32561,1.93664 4.32561,4.32561c0,2.38897 -1.93664,4.32561 -4.32561,4.32561c-2.38897,0 -4.32561,-1.93664 -4.32561,-4.32561z"/><path d="M235.6744,225.60869c0,-2.38897 1.93665,-4.32561 4.32561,-4.32561c2.38897,0 4.32561,1.93664 4.32561,4.32561c0,2.38897 -1.93664,4.32561 -4.32561,4.32561c-2.38897,0 -4.32561,-1.93664 -4.32561,-4.32561z"/><path d="M258.89362,138.26394c1.1863,-2.07361 3.829,-2.7929 5.9026,-1.60659c2.07361,1.1863 2.79291,3.82899 1.60661,5.90259c-1.1863,2.07361 -3.829,2.7929 -5.9026,1.60659c-2.07361,-1.1863 -2.79291,-3.82899 -1.60661,-5.90259z"/><path d="M213.59718,217.43999c1.1863,-2.07361 3.82899,-2.7929 5.90259,-1.60659c2.07361,1.1863 2.7929,3.82899 1.60661,5.90259c-1.1863,2.07361 -3.82899,2.7929 -5.90259,1.60659c-2.07361,-1.1863 -2.7929,-3.82899 -1.60661,-5.90259z"/><path d="M277.33029,153.44219c2.06867,-1.19489 4.71431,-0.48654 5.9092,1.58213c1.19489,2.06867 0.48654,4.71431 -1.58213,5.9092c-2.06867,1.19489 -4.71432,0.48654 -5.9092,-1.58213c-1.19489,-2.06867 -0.48654,-4.71431 1.58213,-5.9092z"/><path d="M198.34263,199.06639c2.06867,-1.19489 4.71431,-0.48654 5.9092,1.58213c1.19489,2.06867 0.48654,4.71431 -1.58213,5.90919c-2.06867,1.19489 -4.71431,0.48655 -5.90919,-1.58212c-1.19489,-2.06867 -0.48655,-4.71431 1.58212,-5.9092z"/><path d="M285.61622,175.75439c2.38896,0.00419 4.3222,1.94423 4.31801,4.33319c-0.00419,2.38897 -1.94423,4.3222 -4.33319,4.31801c-2.38896,-0.00419 -4.3222,-1.94422 -4.31802,-4.33319c0.00419,-2.38897 1.94423,-4.3222 4.33319,-4.31802z"/><path d="M194.39896,175.59436c2.38897,0.00419 4.3222,1.94423 4.31802,4.3332c-0.00419,2.38897 -1.94423,4.3222 -4.33319,4.31801c-2.38897,-0.00419 -4.3222,-1.94422 -4.31801,-4.33319c0.00419,-2.38897 1.94422,-4.3222 4.33319,-4.31802z"/><path d="M219.49978,144.16651c-2.0736,1.18631 -4.7163,0.46702 -5.90259,-1.60659c-1.1863,-2.0736 -0.46701,-4.7163 1.60661,-5.90259c2.0736,-1.18631 4.7163,-0.46701 5.90259,1.6066c1.1863,2.0736 0.46701,4.71629 -1.60661,5.90259z" data-paper-data="{&quot;index&quot;:null}"/><path d="M264.79621,223.34258c-2.0736,1.18631 -4.71629,0.46702 -5.90259,-1.60659c-1.1863,-2.0736 -0.467,-4.7163 1.60661,-5.90259c2.0736,-1.18631 4.71629,-0.46702 5.90259,1.60659c1.1863,2.0736 0.467,4.7163 -1.60661,5.90259z" data-paper-data="{&quot;index&quot;:null}"/><path d="M204.25183,159.35142c-1.19488,2.06867 -3.84053,2.77701 -5.9092,1.58212c-2.06867,-1.19488 -2.77701,-3.84053 -1.58212,-5.9092c1.19488,-2.06867 3.84052,-2.77701 5.90919,-1.58212c2.06867,1.19488 2.77702,3.84053 1.58213,5.9092z" data-paper-data="{&quot;index&quot;:null}"/><path d="M283.2395,204.97559c-1.19488,2.06867 -3.84053,2.77701 -5.9092,1.58212c-2.06867,-1.19488 -2.77702,-3.84052 -1.58213,-5.90919c1.19488,-2.06867 3.84053,-2.77702 5.9092,-1.58213c2.06867,1.19488 2.77702,3.84053 1.58213,5.9092z" data-paper-data="{&quot;index&quot;:null}"/></g></g><g fill="#ff6f6f"><g><path d="M236.12918,139.18652c0,-2.1378 1.73303,-3.87082 3.87082,-3.87082c2.1378,0 3.87082,1.73303 3.87082,3.87082c0,2.1378 -1.73303,3.87082 -3.87082,3.87082c-2.1378,0 -3.87082,-1.73303 -3.87082,-3.87082z"/><path d="M236.12918,220.81351c0,-2.1378 1.73303,-3.87082 3.87082,-3.87082c2.1378,0 3.87082,1.73303 3.87082,3.87082c0,2.1378 -1.73303,3.87082 -3.87082,3.87082c-2.1378,0 -3.87082,-1.73303 -3.87082,-3.87082z"/><path d="M256.90718,142.65202c1.06158,-1.85559 3.42642,-2.49927 5.28201,-1.43768c1.85559,1.06158 2.49927,3.42642 1.43769,5.28201c-1.06158,1.85559 -3.42642,2.49927 -5.28201,1.43768c-1.85559,-1.06158 -2.49927,-3.42642 -1.43769,-5.28201z"/><path d="M216.37312,213.50366c1.06158,-1.85559 3.42642,-2.49927 5.28201,-1.43768c1.85559,1.06158 2.49927,3.42642 1.43769,5.28201c-1.06158,1.85559 -3.42642,2.49927 -5.28201,1.43768c-1.85559,-1.06158 -2.49927,-3.42642 -1.43769,-5.28201z"/><path d="M273.40546,156.23447c1.85118,-1.06926 4.21866,-0.43539 5.28792,1.41579c1.06926,1.85118 0.43539,4.21866 -1.41579,5.28792c-1.85118,1.06926 -4.21866,0.43539 -5.28792,-1.41579c-1.06926,-1.85118 -0.43539,-4.21866 1.41579,-5.28792z"/><path d="M202.7224,197.06182c1.85118,-1.06926 4.21866,-0.43539 5.28792,1.41579c1.06926,1.85118 0.43539,4.21866 -1.41579,5.28792c-1.85118,1.06926 -4.21866,0.43539 -5.28792,-1.41579c-1.06926,-1.85118 -0.43539,-4.21866 1.41579,-5.28792z"/><path d="M280.82022,176.2008c2.1378,0.00375 3.86778,1.73981 3.86403,3.87761c-0.00375,2.1378 -1.73981,3.86778 -3.87761,3.86403c-2.1378,-0.00375 -3.86778,-1.73981 -3.86403,-3.87761c0.00375,-2.1378 1.73981,-3.86778 3.87761,-3.86403z"/><path d="M199.19337,176.0576c2.1378,0.00375 3.86778,1.73981 3.86403,3.87761c-0.00375,2.1378 -1.73981,3.86778 -3.87761,3.86403c-2.1378,-0.00375 -3.86778,-1.73981 -3.86403,-3.87761c0.00375,-2.1378 1.73981,-3.86778 3.87761,-3.86403z"/><path d="M221.65513,147.93401c-1.85559,1.06158 -4.22043,0.41791 -5.28201,-1.43768c-1.06158,-1.85559 -0.4179,-4.22043 1.43769,-5.28201c1.85559,-1.06158 4.22043,-0.41791 5.28201,1.43768c1.06158,1.85559 0.4179,4.22043 -1.43769,5.28201z" data-paper-data="{&quot;index&quot;:null}"/><path d="M262.18918,218.78566c-1.85559,1.06158 -4.22043,0.41791 -5.28201,-1.43768c-1.06158,-1.85559 -0.4179,-4.22043 1.43769,-5.28201c1.85559,-1.06158 4.22043,-0.41791 5.28201,1.43768c1.06158,1.85559 0.4179,4.22043 -1.43769,5.28201z" data-paper-data="{&quot;index&quot;:null}"/><path d="M208.01032,161.5224c-1.06926,1.85118 -3.43674,2.48505 -5.28792,1.41579c-1.85118,-1.06926 -2.48505,-3.43674 -1.41579,-5.28792c1.06926,-1.85118 3.43674,-2.48505 5.28792,-1.41579c1.85118,1.06926 2.48505,3.43674 1.41579,5.28792z" data-paper-data="{&quot;index&quot;:null}"/><path d="M278.69338,202.34974c-1.06926,1.85118 -3.43674,2.48505 -5.28792,1.41579c-1.85118,-1.06926 -2.48505,-3.43674 -1.41579,-5.28792c1.06926,-1.85118 3.43674,-2.48505 5.28792,-1.41579c1.85118,1.06926 2.48505,3.43674 1.41579,5.28792z" data-paper-data="{&quot;index&quot;:null}"/><path d="M236.12918,139.18649c0,-2.1378 1.73303,-3.87082 3.87082,-3.87082c2.1378,0 3.87082,1.73303 3.87082,3.87082c0,2.1378 -1.73303,3.87082 -3.87082,3.87082c-2.1378,0 -3.87082,-1.73303 -3.87082,-3.87082z"/><path d="M236.12918,220.81348c0,-2.1378 1.73303,-3.87082 3.87082,-3.87082c2.1378,0 3.87082,1.73303 3.87082,3.87082c0,2.1378 -1.73303,3.87082 -3.87082,3.87082c-2.1378,0 -3.87082,-1.73303 -3.87082,-3.87082z"/><path d="M256.90718,142.65199c1.06158,-1.85559 3.42642,-2.49927 5.28201,-1.43768c1.85559,1.06158 2.49927,3.42642 1.43769,5.28201c-1.06158,1.85559 -3.42642,2.49927 -5.28201,1.43768c-1.85559,-1.06158 -2.49927,-3.42642 -1.43769,-5.28201z"/><path d="M216.37312,213.50362c1.06158,-1.85559 3.42642,-2.49927 5.28201,-1.43768c1.85559,1.06158 2.49927,3.42642 1.43769,5.28201c-1.06158,1.85559 -3.42642,2.49927 -5.28201,1.43768c-1.85559,-1.06158 -2.49927,-3.42642 -1.43769,-5.28201z"/><path d="M273.40546,156.23443c1.85118,-1.06926 4.21866,-0.43539 5.28792,1.41579c1.06926,1.85118 0.43539,4.21866 -1.41579,5.28792c-1.85118,1.06926 -4.21866,0.43539 -5.28792,-1.41579c-1.06926,-1.85118 -0.43539,-4.21866 1.41579,-5.28792z"/><path d="M202.7224,197.06178c1.85118,-1.06926 4.21866,-0.43539 5.28792,1.41579c1.06926,1.85118 0.43539,4.21866 -1.41579,5.28792c-1.85118,1.06926 -4.21866,0.43539 -5.28792,-1.41579c-1.06926,-1.85118 -0.43539,-4.21866 1.41579,-5.28792z"/><path d="M280.82022,176.20077c2.1378,0.00375 3.86778,1.73981 3.86403,3.87761c-0.00375,2.1378 -1.73981,3.86778 -3.87761,3.86403c-2.1378,-0.00375 -3.86778,-1.73981 -3.86403,-3.87761c0.00375,-2.1378 1.73981,-3.86778 3.87761,-3.86403z"/><path d="M199.19337,176.05756c2.1378,0.00375 3.86778,1.73981 3.86403,3.87761c-0.00375,2.1378 -1.73981,3.86778 -3.87761,3.86403c-2.1378,-0.00375 -3.86778,-1.73981 -3.86403,-3.87761c0.00375,-2.1378 1.73981,-3.86778 3.87761,-3.86403z"/><path d="M221.65513,147.93397c-1.85559,1.06158 -4.22043,0.41791 -5.28201,-1.43768c-1.06158,-1.85559 -0.4179,-4.22043 1.43769,-5.28201c1.85559,-1.06158 4.22043,-0.41791 5.28201,1.43768c1.06158,1.85559 0.4179,4.22043 -1.43769,5.28201z" data-paper-data="{&quot;index&quot;:null}"/><path d="M262.18918,218.78562c-1.85559,1.06158 -4.22043,0.41791 -5.28201,-1.43768c-1.06158,-1.85559 -0.4179,-4.22043 1.43769,-5.28201c1.85559,-1.06158 4.22043,-0.41791 5.28201,1.43768c1.06158,1.85559 0.4179,4.22043 -1.43769,5.28201z" data-paper-data="{&quot;index&quot;:null}"/><path d="M208.01032,161.52237c-1.06926,1.85118 -3.43674,2.48505 -5.28792,1.41579c-1.85118,-1.06926 -2.48505,-3.43674 -1.41579,-5.28792c1.06926,-1.85118 3.43674,-2.48505 5.28792,-1.41579c1.85118,1.06926 2.48505,3.43674 1.41579,5.28792z" data-paper-data="{&quot;index&quot;:null}"/><path d="M278.69338,202.3497c-1.06926,1.85118 -3.43674,2.48505 -5.28792,1.41579c-1.85118,-1.06926 -2.48505,-3.43674 -1.41579,-5.28792c1.06926,-1.85118 3.43674,-2.48505 5.28792,-1.41579c1.85118,1.06926 2.48505,3.43674 1.41579,5.28792z" data-paper-data="{&quot;index&quot;:null}"/></g><g><path d="M236.68059,145.00044c0,-1.83326 1.48616,-3.31942 3.31942,-3.31942c1.83326,0 3.31942,1.48616 3.31942,3.31942c0,1.83326 -1.48616,3.31942 -3.31942,3.31942c-1.83326,0 -3.31942,-1.48616 -3.31942,-3.31942z"/><path d="M236.68059,214.99955c0,-1.83326 1.48616,-3.31942 3.31942,-3.31942c1.83326,0 3.31942,1.48616 3.31942,3.31942c0,1.83326 -1.48616,3.31942 -3.31942,3.31942c-1.83326,0 -3.31942,-1.48616 -3.31942,-3.31942z"/><path d="M254.49873,147.97228c0.91035,-1.59126 2.93832,-2.14324 4.52958,-1.23288c1.59126,0.91035 2.14324,2.93832 1.23289,4.52958c-0.91035,1.59126 -2.93832,2.14324 -4.52958,1.23288c-1.59126,-0.91035 -2.14324,-2.93832 -1.23289,-4.52958z"/><path d="M219.7388,208.731c0.91035,-1.59126 2.93832,-2.14324 4.52958,-1.23288c1.59126,0.91035 2.14324,2.93832 1.23289,4.52958c-0.91035,1.59126 -2.93832,2.14324 -4.52958,1.23288c-1.59126,-0.91035 -2.14324,-2.93832 -1.23289,-4.52958z"/><path d="M268.64681,159.61988c1.58747,-0.91694 3.61771,-0.37337 4.53464,1.21411c0.91694,1.58747 0.37337,3.61771 -1.2141,4.53464c-1.58747,0.91694 -3.61771,0.37337 -4.53464,-1.2141c-0.91694,-1.58747 -0.37337,-3.61771 1.2141,-4.53465z"/><path d="M208.03265,194.63132c1.58747,-0.91694 3.61771,-0.37337 4.53465,1.21411c0.91694,1.58747 0.37337,3.61771 -1.21411,4.53464c-1.58747,0.91694 -3.61771,0.37337 -4.53464,-1.2141c-0.91694,-1.58747 -0.37337,-3.61771 1.2141,-4.53465z"/><path d="M275.00532,176.74199c1.83326,0.00322 3.31681,1.49197 3.31359,3.32524c-0.00322,1.83326 -1.49197,3.31681 -3.32524,3.31359c-1.83326,-0.00322 -3.31681,-1.49197 -3.31359,-3.32524c0.00322,-1.83326 1.49197,-3.31681 3.32524,-3.31359z"/><path d="M205.00633,176.61918c1.83326,0.00322 3.31681,1.49197 3.31359,3.32524c-0.00322,1.83326 -1.49197,3.31681 -3.32524,3.31359c-1.83326,-0.00322 -3.31681,-1.49198 -3.31359,-3.32524c0.00322,-1.83326 1.49197,-3.3168 3.32524,-3.31359z"/><path d="M224.26838,152.50184c-1.59126,0.91036 -3.61923,0.35838 -4.52958,-1.23288c-0.91035,-1.59126 -0.35837,-3.61922 1.23289,-4.52958c1.59126,-0.91036 3.61922,-0.35838 4.52958,1.23288c0.91035,1.59126 0.35838,3.61923 -1.23289,4.52958z" data-paper-data="{&quot;index&quot;:null}"/><path d="M259.0283,213.26057c-1.59126,0.91036 -3.61922,0.35838 -4.52958,-1.23288c-0.91035,-1.59126 -0.35837,-3.61922 1.23289,-4.52958c1.59126,-0.91036 3.61922,-0.35838 4.52958,1.23288c0.91035,1.59126 0.35837,3.61922 -1.23289,4.52958z" data-paper-data="{&quot;index&quot;:null}"/><path d="M212.56729,164.15454c-0.91694,1.58747 -2.94717,2.13105 -4.53465,1.2141c-1.58747,-0.91694 -2.13105,-2.94717 -1.2141,-4.53464c0.91694,-1.58747 2.94717,-2.13105 4.53464,-1.2141c1.58747,0.91694 2.13105,2.94717 1.21411,4.53464z" data-paper-data="{&quot;index&quot;:null}"/><path d="M273.18146,199.16597c-0.91694,1.58747 -2.94717,2.13105 -4.53464,1.2141c-1.58747,-0.91694 -2.13105,-2.94717 -1.21411,-4.53464c0.91694,-1.58747 2.94717,-2.13105 4.53465,-1.21411c1.58747,0.91694 2.13105,2.94717 1.2141,4.53465z" data-paper-data="{&quot;index&quot;:null}"/><path d="M236.68059,145.00041c0,-1.83326 1.48616,-3.31942 3.31942,-3.31942c1.83326,0 3.31942,1.48616 3.31942,3.31942c0,1.83326 -1.48616,3.31942 -3.31942,3.31942c-1.83326,0 -3.31942,-1.48616 -3.31942,-3.31942z"/><path d="M236.68059,214.99952c0,-1.83326 1.48616,-3.31942 3.31942,-3.31942c1.83326,0 3.31942,1.48616 3.31942,3.31942c0,1.83326 -1.48616,3.31942 -3.31942,3.31942c-1.83326,0 -3.31942,-1.48616 -3.31942,-3.31942z"/><path d="M254.49873,147.97224c0.91035,-1.59126 2.93832,-2.14324 4.52958,-1.23288c1.59126,0.91035 2.14324,2.93832 1.23289,4.52958c-0.91035,1.59126 -2.93832,2.14324 -4.52958,1.23288c-1.59126,-0.91035 -2.14324,-2.93832 -1.23289,-4.52958z"/><path d="M219.7388,208.73096c0.91035,-1.59126 2.93832,-2.14324 4.52958,-1.23288c1.59126,0.91035 2.14324,2.93832 1.23289,4.52958c-0.91035,1.59126 -2.93832,2.14324 -4.52958,1.23288c-1.59126,-0.91035 -2.14324,-2.93832 -1.23289,-4.52958z"/><path d="M268.64681,159.61985c1.58747,-0.91694 3.61771,-0.37337 4.53464,1.2141c0.91694,1.58747 0.37337,3.61771 -1.2141,4.53465c-1.58747,0.91694 -3.61771,0.37337 -4.53464,-1.21411c-0.91694,-1.58747 -0.37337,-3.61771 1.2141,-4.53464z"/><path d="M208.03265,194.63129c1.58747,-0.91694 3.61771,-0.37337 4.53465,1.2141c0.91694,1.58747 0.37337,3.61771 -1.21411,4.53465c-1.58747,0.91694 -3.61771,0.37337 -4.53464,-1.21411c-0.91694,-1.58747 -0.37337,-3.61771 1.2141,-4.53464z"/><path d="M275.00532,176.74195c1.83326,0.00322 3.31681,1.49198 3.31359,3.32524c-0.00322,1.83326 -1.49197,3.3168 -3.32524,3.31359c-1.83326,-0.00322 -3.31681,-1.49197 -3.31359,-3.32524c0.00322,-1.83326 1.49197,-3.31681 3.32524,-3.31359z"/><path d="M205.00633,176.61915c1.83326,0.00322 3.31681,1.49197 3.31359,3.32524c-0.00322,1.83326 -1.49197,3.31681 -3.32524,3.31359c-1.83326,-0.00322 -3.31681,-1.49197 -3.31359,-3.32524c0.00322,-1.83326 1.49197,-3.31681 3.32524,-3.31359z"/><path d="M224.26838,152.5018c-1.59126,0.91036 -3.61923,0.35838 -4.52958,-1.23288c-0.91035,-1.59126 -0.35837,-3.61922 1.23289,-4.52958c1.59126,-0.91036 3.61922,-0.35838 4.52958,1.23288c0.91035,1.59126 0.35838,3.61922 -1.23289,4.52958z" data-paper-data="{&quot;index&quot;:null}"/><path d="M259.0283,213.26054c-1.59126,0.91036 -3.61922,0.35838 -4.52958,-1.23288c-0.91035,-1.59126 -0.35837,-3.61922 1.23289,-4.52958c1.59126,-0.91036 3.61922,-0.35838 4.52958,1.23288c0.91035,1.59126 0.35837,3.61922 -1.23289,4.52958z" data-paper-data="{&quot;index&quot;:null}"/><path d="M212.56729,164.15451c-0.91694,1.58747 -2.94717,2.13105 -4.53465,1.2141c-1.58747,-0.91694 -2.13105,-2.94717 -1.2141,-4.53464c0.91694,-1.58747 2.94717,-2.13105 4.53464,-1.21411c1.58747,0.91694 2.13105,2.94717 1.21411,4.53465z" data-paper-data="{&quot;index&quot;:null}"/><path d="M273.18146,199.16593c-0.91694,1.58747 -2.94717,2.13105 -4.53464,1.21411c-1.58747,-0.91694 -2.13105,-2.94717 -1.21411,-4.53465c0.91694,-1.58747 2.94717,-2.13105 4.53465,-1.2141c1.58747,0.91694 2.13105,2.94717 1.2141,4.53464z" data-paper-data="{&quot;index&quot;:null}"/></g><g><path d="M237.02335,148.61452c0,-1.64396 1.3327,-2.97665 2.97666,-2.97665c1.64396,0 2.97665,1.3327 2.97665,2.97665c0,1.64396 -1.3327,2.97665 -2.97665,2.97665c-1.64396,0 -2.97666,-1.3327 -2.97666,-2.97665z"/><path d="M237.02335,211.38547c0,-1.64396 1.3327,-2.97665 2.97666,-2.97665c1.64396,0 2.97665,1.3327 2.97665,2.97665c0,1.64396 -1.3327,2.97666 -2.97665,2.97666c-1.64396,0 -2.97666,-1.3327 -2.97666,-2.97666z"/><path d="M253.00158,151.27948c0.81635,-1.42695 2.63491,-1.92193 4.06185,-1.10558c1.42695,0.81635 1.92193,2.63491 1.10558,4.06185c-0.81635,1.42695 -2.63491,1.92193 -4.06185,1.10557c-1.42695,-0.81635 -1.92193,-2.63491 -1.10558,-4.06185z"/><path d="M221.83099,205.76421c0.81635,-1.42695 2.63491,-1.92193 4.06185,-1.10558c1.42695,0.81635 1.92193,2.63491 1.10558,4.06185c-0.81635,1.42695 -2.63491,1.92193 -4.06185,1.10557c-1.42695,-0.81635 -1.92193,-2.63491 -1.10558,-4.06185z"/><path d="M265.68871,161.72435c1.42355,-0.82226 3.24414,-0.33481 4.0664,1.08873c0.82226,1.42355 0.33481,3.24414 -1.08874,4.0664c-1.42355,0.82226 -3.24414,0.33481 -4.0664,-1.08873c-0.82226,-1.42355 -0.33481,-3.24414 1.08874,-4.0664z"/><path d="M211.33362,193.12048c1.42355,-0.82226 3.24414,-0.33481 4.0664,1.08873c0.82226,1.42355 0.33481,3.24414 -1.08874,4.0664c-1.42355,0.82226 -3.24414,0.33481 -4.06639,-1.08874c-0.82226,-1.42355 -0.33481,-3.24414 1.08873,-4.06639z"/><path d="M271.39064,177.07841c1.64396,0.00288 2.97431,1.33791 2.97142,2.98187c-0.00288,1.64396 -1.33791,2.97431 -2.98187,2.97143c-1.64396,-0.00288 -2.97431,-1.33792 -2.97143,-2.98187c0.00288,-1.64396 1.33792,-2.97431 2.98187,-2.97142z"/><path d="M208.6198,176.96829c1.64396,0.00288 2.97431,1.33791 2.97143,2.98187c-0.00288,1.64396 -1.33792,2.97431 -2.98187,2.97143c-1.64396,-0.00288 -2.97431,-1.33792 -2.97142,-2.98187c0.00288,-1.64396 1.33791,-2.97431 2.98187,-2.97142z"/><path d="M225.89284,155.34132c-1.42694,0.81636 -3.2455,0.32137 -4.06185,-1.10558c-0.81635,-1.42694 -0.32137,-3.2455 1.10558,-4.06185c1.42694,-0.81636 3.2455,-0.32137 4.06185,1.10557c0.81635,1.42694 0.32137,3.2455 -1.10558,4.06185z" data-paper-data="{&quot;index&quot;:null}"/><path d="M257.06342,209.82605c-1.42694,0.81636 -3.2455,0.32137 -4.06185,-1.10557c-0.81635,-1.42694 -0.32137,-3.2455 1.10558,-4.06185c1.42694,-0.81636 3.2455,-0.32137 4.06185,1.10558c0.81635,1.42694 0.32137,3.2455 -1.10558,4.06185z" data-paper-data="{&quot;index&quot;:null}"/><path d="M215.40002,165.79076c-0.82226,1.42355 -2.64285,1.911 -4.0664,1.08874c-1.42355,-0.82226 -1.91099,-2.64285 -1.08873,-4.0664c0.82226,-1.42355 2.64284,-1.911 4.06639,-1.08874c1.42355,0.82226 1.911,2.64285 1.08874,4.0664z" data-paper-data="{&quot;index&quot;:null}"/><path d="M269.75511,197.18687c-0.82226,1.42355 -2.64284,1.911 -4.06639,1.08874c-1.42355,-0.82226 -1.911,-2.64285 -1.08874,-4.0664c0.82226,-1.42355 2.64285,-1.91099 4.0664,-1.08873c1.42355,0.82226 1.91099,2.64284 1.08873,4.06639z" data-paper-data="{&quot;index&quot;:null}"/><path d="M237.02335,148.6145c0,-1.64396 1.3327,-2.97665 2.97666,-2.97665c1.64396,0 2.97665,1.3327 2.97665,2.97665c0,1.64396 -1.3327,2.97665 -2.97665,2.97665c-1.64396,0 -2.97666,-1.3327 -2.97666,-2.97665z"/><path d="M237.02335,211.38544c0,-1.64396 1.3327,-2.97665 2.97666,-2.97665c1.64396,0 2.97665,1.3327 2.97665,2.97665c0,1.64396 -1.3327,2.97665 -2.97665,2.97665c-1.64396,0 -2.97666,-1.3327 -2.97666,-2.97665z"/><path d="M253.00158,151.27945c0.81635,-1.42695 2.63491,-1.92193 4.06185,-1.10557c1.42695,0.81635 1.92193,2.63491 1.10558,4.06185c-0.81635,1.42695 -2.63491,1.92193 -4.06185,1.10557c-1.42695,-0.81635 -1.92193,-2.63491 -1.10558,-4.06185z"/><path d="M221.83099,205.76418c0.81635,-1.42695 2.63491,-1.92193 4.06185,-1.10557c1.42695,0.81635 1.92193,2.63491 1.10558,4.06185c-0.81635,1.42695 -2.63491,1.92193 -4.06185,1.10557c-1.42695,-0.81635 -1.92193,-2.63491 -1.10558,-4.06185z"/><path d="M265.68871,161.72432c1.42355,-0.82226 3.24414,-0.33481 4.0664,1.08874c0.82226,1.42355 0.33481,3.24414 -1.08874,4.0664c-1.42355,0.82226 -3.24414,0.33481 -4.0664,-1.08874c-0.82226,-1.42355 -0.33481,-3.24414 1.08874,-4.0664z"/><path d="M211.33362,193.12045c1.42355,-0.82226 3.24414,-0.33481 4.0664,1.08874c0.82226,1.42355 0.33481,3.24414 -1.08874,4.06639c-1.42355,0.82226 -3.24414,0.33481 -4.06639,-1.08873c-0.82226,-1.42355 -0.33481,-3.24414 1.08873,-4.0664z"/><path d="M271.39064,177.07838c1.64396,0.00288 2.97431,1.33792 2.97142,2.98187c-0.00288,1.64396 -1.33791,2.97431 -2.98187,2.97142c-1.64396,-0.00288 -2.97431,-1.33791 -2.97143,-2.98187c0.00288,-1.64396 1.33792,-2.97431 2.98187,-2.97143z"/><path d="M208.6198,176.96826c1.64396,0.00288 2.97431,1.33792 2.97143,2.98187c-0.00288,1.64396 -1.33792,2.97431 -2.98187,2.97142c-1.64396,-0.00288 -2.97431,-1.33791 -2.97142,-2.98187c0.00288,-1.64396 1.33791,-2.97431 2.98187,-2.97143z"/><path d="M225.89284,155.34129c-1.42694,0.81636 -3.2455,0.32137 -4.06185,-1.10557c-0.81635,-1.42694 -0.32137,-3.2455 1.10558,-4.06185c1.42694,-0.81636 3.2455,-0.32137 4.06185,1.10558c0.81635,1.42694 0.32137,3.2455 -1.10558,4.06185z" data-paper-data="{&quot;index&quot;:null}"/><path d="M257.06342,209.82603c-1.42694,0.81636 -3.2455,0.32137 -4.06185,-1.10557c-0.81635,-1.42694 -0.32137,-3.2455 1.10558,-4.06185c1.42694,-0.81636 3.2455,-0.32137 4.06185,1.10557c0.81635,1.42694 0.32137,3.2455 -1.10558,4.06185z" data-paper-data="{&quot;index&quot;:null}"/><path d="M215.40002,165.79073c-0.82226,1.42355 -2.64285,1.91099 -4.0664,1.08873c-1.42355,-0.82226 -1.91099,-2.64285 -1.08873,-4.0664c0.82226,-1.42355 2.64284,-1.91099 4.06639,-1.08873c1.42355,0.82226 1.911,2.64285 1.08874,4.0664z" data-paper-data="{&quot;index&quot;:null}"/><path d="M269.75511,197.18684c-0.82226,1.42355 -2.64284,1.91099 -4.06639,1.08873c-1.42355,-0.82226 -1.911,-2.64284 -1.08874,-4.06639c0.82226,-1.42355 2.64285,-1.911 4.0664,-1.08874c1.42355,0.82226 1.91099,2.64285 1.08873,4.0664z" data-paper-data="{&quot;index&quot;:null}"/></g></g><g fill="#ffa2a2"><g><path d="M237.49354,153.57215c0,-1.38428 1.12218,-2.50647 2.50646,-2.50647c1.38428,0 2.50647,1.12218 2.50647,2.50647c0,1.38428 -1.12218,2.50647 -2.50647,2.50647c-1.38428,0 -2.50646,-1.12218 -2.50646,-2.50647z"/><path d="M237.49354,206.42787c0,-1.38428 1.12218,-2.50647 2.50646,-2.50647c1.38428,0 2.50647,1.12218 2.50647,2.50647c0,1.38428 -1.12218,2.50647 -2.50647,2.50647c-1.38428,0 -2.50646,-1.12218 -2.50646,-2.50647z"/><path d="M250.94786,155.81616c0.6874,-1.20155 2.2187,-1.61835 3.42025,-0.93094c1.20155,0.6874 1.61834,2.2187 0.93094,3.42024c-0.6874,1.20155 -2.2187,1.61835 -3.42024,0.93094c-1.20155,-0.6874 -1.61834,-2.2187 -0.93094,-3.42024z"/><path d="M224.70095,201.69454c0.6874,-1.20155 2.2187,-1.61834 3.42024,-0.93094c1.20155,0.6874 1.61834,2.2187 0.93094,3.42024c-0.6874,1.20155 -2.2187,1.61835 -3.42025,0.93094c-1.20155,-0.6874 -1.61834,-2.2187 -0.93094,-3.42025z"/><path d="M261.63095,164.61116c1.19869,-0.69238 2.7317,-0.28193 3.42407,0.91676c0.69238,1.19869 0.28193,2.7317 -0.91676,3.42407c-1.19869,0.69238 -2.7317,0.28193 -3.42407,-0.91676c-0.69238,-1.19869 -0.28193,-2.7317 0.91676,-3.42407z"/><path d="M215.86173,191.048c1.19869,-0.69238 2.7317,-0.28193 3.42407,0.91676c0.69238,1.19869 0.28193,2.7317 -0.91676,3.42407c-1.19869,0.69238 -2.7317,0.28193 -3.42407,-0.91676c-0.69238,-1.19869 -0.28193,-2.7317 0.91676,-3.42407z"/><path d="M266.43222,177.53992c1.38428,0.00243 2.50449,1.12658 2.50206,2.51086c-0.00243,1.38428 -1.12658,2.50449 -2.51086,2.50206c-1.38428,-0.00243 -2.50449,-1.12658 -2.50206,-2.51086c0.00243,-1.38428 1.12658,-2.50449 2.51086,-2.50206z"/><path d="M213.57658,177.44719c1.38428,0.00243 2.50449,1.12658 2.50206,2.51086c-0.00243,1.38428 -1.12658,2.50449 -2.51086,2.50206c-1.38428,-0.00243 -2.50449,-1.12658 -2.50206,-2.51086c0.00243,-1.38428 1.12658,-2.50449 2.51086,-2.50206z"/><path d="M228.12119,159.23639c-1.20154,0.68741 -2.73284,0.27061 -3.42024,-0.93094c-0.6874,-1.20154 -0.27061,-2.73284 0.93094,-3.42024c1.20154,-0.68741 2.73285,-0.27061 3.42025,0.93094c0.6874,1.20154 0.2706,2.73284 -0.93094,3.42024z" data-paper-data="{&quot;index&quot;:null}"/><path d="M254.3681,205.11479c-1.20154,0.68741 -2.73284,0.27061 -3.42024,-0.93094c-0.6874,-1.20154 -0.2706,-2.73284 0.93094,-3.42024c1.20154,-0.68741 2.73284,-0.27061 3.42024,0.93094c0.6874,1.20154 0.2706,2.73285 -0.93094,3.42025z" data-paper-data="{&quot;index&quot;:null}"/><path d="M219.2858,168.03525c-0.69237,1.19869 -2.22539,1.60914 -3.42407,0.91676c-1.19869,-0.69237 -1.60914,-2.22538 -0.91676,-3.42407c0.69237,-1.19869 2.22539,-1.60914 3.42407,-0.91676c1.19869,0.69237 1.60914,2.22539 0.91676,3.42407z" data-paper-data="{&quot;index&quot;:null}"/><path d="M265.05503,194.47207c-0.69237,1.19869 -2.22539,1.60914 -3.42407,0.91676c-1.19869,-0.69237 -1.60914,-2.22539 -0.91676,-3.42407c0.69237,-1.19869 2.22539,-1.60914 3.42407,-0.91676c1.19869,0.69237 1.60914,2.22539 0.91676,3.42407z" data-paper-data="{&quot;index&quot;:null}"/><path d="M237.49354,153.57213c0,-1.38428 1.12218,-2.50647 2.50646,-2.50647c1.38428,0 2.50647,1.12218 2.50647,2.50647c0,1.38428 -1.12218,2.50647 -2.50647,2.50647c-1.38428,0 -2.50646,-1.12218 -2.50646,-2.50647z"/><path d="M237.49354,206.42785c0,-1.38428 1.12218,-2.50647 2.50646,-2.50647c1.38428,0 2.50647,1.12218 2.50647,2.50647c0,1.38428 -1.12218,2.50647 -2.50647,2.50647c-1.38428,0 -2.50646,-1.12218 -2.50646,-2.50647z"/><path d="M250.94786,155.81613c0.6874,-1.20155 2.2187,-1.61834 3.42025,-0.93094c1.20155,0.6874 1.61834,2.2187 0.93094,3.42024c-0.6874,1.20155 -2.2187,1.61834 -3.42024,0.93094c-1.20155,-0.6874 -1.61834,-2.2187 -0.93094,-3.42024z"/><path d="M224.70095,201.69452c0.6874,-1.20155 2.2187,-1.61835 3.42024,-0.93094c1.20155,0.6874 1.61834,2.2187 0.93094,3.42024c-0.6874,1.20155 -2.2187,1.61835 -3.42025,0.93094c-1.20155,-0.6874 -1.61834,-2.2187 -0.93094,-3.42024z"/><path d="M261.63095,164.61114c1.19869,-0.69238 2.7317,-0.28193 3.42407,0.91676c0.69238,1.19869 0.28193,2.7317 -0.91676,3.42407c-1.19869,0.69238 -2.7317,0.28193 -3.42407,-0.91676c-0.69238,-1.19869 -0.28193,-2.7317 0.91676,-3.42407z"/><path d="M215.86173,191.04797c1.19869,-0.69238 2.7317,-0.28192 3.42407,0.91676c0.69238,1.19869 0.28193,2.7317 -0.91676,3.42407c-1.19869,0.69238 -2.7317,0.28193 -3.42407,-0.91676c-0.69238,-1.19869 -0.28193,-2.7317 0.91676,-3.42407z"/><path d="M266.43222,177.53989c1.38428,0.00243 2.50449,1.12658 2.50206,2.51086c-0.00243,1.38428 -1.12658,2.50449 -2.51086,2.50206c-1.38428,-0.00243 -2.50449,-1.12658 -2.50206,-2.51086c0.00243,-1.38428 1.12658,-2.50449 2.51086,-2.50206z"/><path d="M213.57658,177.44716c1.38428,0.00243 2.50449,1.12658 2.50206,2.51086c-0.00243,1.38428 -1.12658,2.50449 -2.51086,2.50206c-1.38428,-0.00243 -2.50449,-1.12658 -2.50206,-2.51086c0.00243,-1.38428 1.12658,-2.50449 2.51086,-2.50206z"/><path d="M228.12119,159.23636c-1.20154,0.68741 -2.73284,0.27061 -3.42024,-0.93094c-0.6874,-1.20154 -0.27061,-2.73285 0.93094,-3.42025c1.20154,-0.68741 2.73285,-0.27061 3.42025,0.93094c0.6874,1.20154 0.2706,2.73284 -0.93094,3.42024z" data-paper-data="{&quot;index&quot;:null}"/><path d="M254.3681,205.11476c-1.20154,0.68741 -2.73284,0.27061 -3.42024,-0.93094c-0.6874,-1.20154 -0.2706,-2.73284 0.93094,-3.42024c1.20154,-0.68741 2.73284,-0.27061 3.42024,0.93094c0.6874,1.20154 0.2706,2.73284 -0.93094,3.42024z" data-paper-data="{&quot;index&quot;:null}"/><path d="M219.2858,168.03522c-0.69237,1.19869 -2.22539,1.60914 -3.42407,0.91676c-1.19869,-0.69237 -1.60914,-2.22538 -0.91676,-3.42407c0.69237,-1.19869 2.22539,-1.60914 3.42407,-0.91676c1.19869,0.69237 1.60914,2.22538 0.91676,3.42407z" data-paper-data="{&quot;index&quot;:null}"/><path d="M265.05503,194.47205c-0.69237,1.19869 -2.22539,1.60914 -3.42407,0.91676c-1.19869,-0.69237 -1.60914,-2.22538 -0.91676,-3.42407c0.69237,-1.19869 2.22539,-1.60914 3.42407,-0.91676c1.19869,0.69237 1.60914,2.22539 0.91676,3.42407z" data-paper-data="{&quot;index&quot;:null}"/></g><g><path d="M237.85059,157.33682c0,-1.18709 0.96232,-2.14942 2.14941,-2.14942c1.18709,0 2.14942,0.96233 2.14942,2.14942c0,1.18709 -0.96233,2.14942 -2.14942,2.14942c-1.18709,0 -2.14941,-0.96233 -2.14941,-2.14942z"/><path d="M237.85059,202.66318c0,-1.18709 0.96232,-2.14942 2.14941,-2.14942c1.18709,0 2.14942,0.96233 2.14942,2.14942c0,1.18709 -0.96233,2.14941 -2.14942,2.14941c-1.18709,0 -2.14941,-0.96232 -2.14941,-2.14941z"/><path d="M249.38833,159.26117c0.58948,-1.03039 1.90264,-1.38781 2.93302,-0.79832c1.03039,0.58948 1.38781,1.90264 0.79833,2.93302c-0.58948,1.03039 -1.90264,1.38781 -2.93302,0.79833c-1.03039,-0.58948 -1.38781,-1.90265 -0.79833,-2.93303z"/><path d="M226.88032,198.60411c0.58948,-1.03039 1.90264,-1.38781 2.93302,-0.79833c1.03039,0.58948 1.38781,1.90265 0.79833,2.93303c-0.58948,1.03039 -1.90264,1.38781 -2.93302,0.79832c-1.03039,-0.58948 -1.38781,-1.90264 -0.79833,-2.93302z"/><path d="M258.54959,166.80331c1.02793,-0.59375 2.34256,-0.24177 2.93631,0.78617c0.59375,1.02793 0.24177,2.34256 -0.78617,2.93631c-1.02793,0.59375 -2.34256,0.24177 -2.93631,-0.78617c-0.59375,-1.02793 -0.24177,-2.34256 0.78617,-2.93631z"/><path d="M219.30026,189.47418c1.02793,-0.59375 2.34257,-0.24176 2.93631,0.78617c0.59375,1.02793 0.24176,2.34256 -0.78617,2.93631c-1.02793,0.59375 -2.34256,0.24177 -2.93631,-0.78617c-0.59375,-1.02793 -0.24177,-2.34257 0.78617,-2.93631z"/><path d="M262.66691,177.89035c1.18709,0.00208 2.14772,0.96609 2.14564,2.15318c-0.00208,1.18709 -0.96609,2.14772 -2.15318,2.14564c-1.18709,-0.00208 -2.14772,-0.96609 -2.14564,-2.15318c0.00208,-1.18709 0.96609,-2.14772 2.15318,-2.14564z"/><path d="M217.34063,177.81083c1.18709,0.00208 2.14772,0.96609 2.14564,2.15318c-0.00208,1.18709 -0.96609,2.14772 -2.15318,2.14564c-1.18709,-0.00208 -2.14772,-0.96609 -2.14564,-2.15318c0.00208,-1.18709 0.96609,-2.14772 2.15318,-2.14564z"/><path d="M229.81334,162.19418c-1.03038,0.58948 -2.34355,0.23206 -2.93302,-0.79832c-0.58948,-1.03038 -0.23206,-2.34355 0.79833,-2.93303c1.03038,-0.58948 2.34355,-0.23206 2.93302,0.79832c0.58948,1.03038 0.23206,2.34355 -0.79833,2.93303z" data-paper-data="{&quot;index&quot;:null}"/><path d="M252.32135,201.53713c-1.03038,0.58948 -2.34355,0.23206 -2.93302,-0.79832c-0.58948,-1.03038 -0.23206,-2.34355 0.79833,-2.93303c1.03038,-0.58948 2.34355,-0.23206 2.93302,0.79833c0.58948,1.03038 0.23206,2.34355 -0.79833,2.93302z" data-paper-data="{&quot;index&quot;:null}"/><path d="M222.23657,169.73963c-0.59374,1.02793 -1.90838,1.37991 -2.93631,0.78617c-1.02793,-0.59374 -1.37991,-1.90837 -0.78617,-2.93631c0.59374,-1.02793 1.90837,-1.37991 2.93631,-0.78617c1.02793,0.59374 1.37992,1.90837 0.78617,2.93631z" data-paper-data="{&quot;index&quot;:null}"/><path d="M261.48591,192.41049c-0.59374,1.02793 -1.90837,1.37991 -2.93631,0.78617c-1.02793,-0.59374 -1.37992,-1.90837 -0.78617,-2.93631c0.59374,-1.02793 1.90838,-1.37992 2.93631,-0.78617c1.02793,0.59374 1.37991,1.90838 0.78617,2.93631z" data-paper-data="{&quot;index&quot;:null}"/><path d="M237.85059,157.3368c0,-1.18709 0.96232,-2.14942 2.14941,-2.14942c1.18709,0 2.14942,0.96233 2.14942,2.14942c0,1.18709 -0.96233,2.14942 -2.14942,2.14942c-1.18709,0 -2.14941,-0.96233 -2.14941,-2.14942z"/><path d="M237.85059,202.66315c0,-1.18709 0.96232,-2.14941 2.14941,-2.14941c1.18709,0 2.14942,0.96232 2.14942,2.14941c0,1.18709 -0.96233,2.14942 -2.14942,2.14942c-1.18709,0 -2.14941,-0.96233 -2.14941,-2.14942z"/><path d="M249.38833,159.26114c0.58948,-1.03039 1.90264,-1.38781 2.93302,-0.79832c1.03039,0.58948 1.38781,1.90264 0.79833,2.93302c-0.58948,1.03039 -1.90264,1.38781 -2.93302,0.79833c-1.03039,-0.58948 -1.38781,-1.90265 -0.79833,-2.93303z"/><path d="M226.88032,198.60409c0.58948,-1.03039 1.90264,-1.38781 2.93302,-0.79833c1.03039,0.58948 1.38781,1.90265 0.79833,2.93303c-0.58948,1.03039 -1.90264,1.38781 -2.93302,0.79832c-1.03039,-0.58948 -1.38781,-1.90264 -0.79833,-2.93302z"/><path d="M258.54959,166.80329c1.02793,-0.59375 2.34256,-0.24177 2.93631,0.78616c0.59375,1.02793 0.24177,2.34257 -0.78617,2.93631c-1.02793,0.59375 -2.34256,0.24177 -2.93631,-0.78617c-0.59375,-1.02793 -0.24177,-2.34256 0.78617,-2.93631z"/><path d="M219.30026,189.47416c1.02793,-0.59375 2.34257,-0.24177 2.93631,0.78617c0.59375,1.02793 0.24176,2.34256 -0.78617,2.93631c-1.02793,0.59375 -2.34256,0.24177 -2.93631,-0.78617c-0.59375,-1.02793 -0.24177,-2.34256 0.78617,-2.93631z"/><path d="M262.66691,177.89032c1.18709,0.00208 2.14772,0.96609 2.14564,2.15318c-0.00208,1.18709 -0.96609,2.14772 -2.15318,2.14564c-1.18709,-0.00208 -2.14772,-0.96609 -2.14564,-2.15318c0.00208,-1.18709 0.96609,-2.14772 2.15318,-2.14564z"/><path d="M217.34063,177.81081c1.18709,0.00208 2.14772,0.96609 2.14564,2.15318c-0.00208,1.18709 -0.96609,2.14772 -2.15318,2.14564c-1.18709,-0.00208 -2.14772,-0.96609 -2.14564,-2.15318c0.00208,-1.18709 0.96609,-2.14772 2.15318,-2.14564z"/><path d="M229.81334,162.19416c-1.03038,0.58948 -2.34355,0.23206 -2.93302,-0.79832c-0.58948,-1.03038 -0.23206,-2.34355 0.79833,-2.93303c1.03038,-0.58948 2.34355,-0.23206 2.93302,0.79833c0.58948,1.03038 0.23206,2.34355 -0.79833,2.93302z" data-paper-data="{&quot;index&quot;:null}"/><path d="M252.32135,201.53712c-1.03038,0.58948 -2.34355,0.23206 -2.93302,-0.79832c-0.58948,-1.03038 -0.23206,-2.34355 0.79833,-2.93303c1.03038,-0.58948 2.34355,-0.23206 2.93302,0.79833c0.58948,1.03038 0.23206,2.34355 -0.79833,2.93302z" data-paper-data="{&quot;index&quot;:null}"/><path d="M222.23657,169.73961c-0.59374,1.02793 -1.90838,1.37991 -2.93631,0.78616c-1.02793,-0.59374 -1.37991,-1.90837 -0.78617,-2.93631c0.59374,-1.02793 1.90837,-1.37991 2.93631,-0.78617c1.02793,0.59374 1.37992,1.90838 0.78617,2.93631z" data-paper-data="{&quot;index&quot;:null}"/><path d="M261.48591,192.41047c-0.59374,1.02793 -1.90837,1.37991 -2.93631,0.78617c-1.02793,-0.59374 -1.37992,-1.90837 -0.78617,-2.93631c0.59374,-1.02793 1.90838,-1.37991 2.93631,-0.78617c1.02793,0.59374 1.37991,1.90837 0.78617,2.93631z" data-paper-data="{&quot;index&quot;:null}"/></g><g><path d="M238.07254,159.67704c0,-1.06451 0.86296,-1.92747 1.92747,-1.92747c1.06451,0 1.92747,0.86296 1.92747,1.92747c0,1.06451 -0.86296,1.92746 -1.92747,1.92746c-1.06451,0 -1.92747,-0.86295 -1.92747,-1.92746z"/><path d="M238.07254,200.32295c0,-1.06451 0.86296,-1.92747 1.92747,-1.92747c1.06451,0 1.92747,0.86296 1.92747,1.92747c0,1.06451 -0.86296,1.92747 -1.92747,1.92747c-1.06451,0 -1.92747,-0.86296 -1.92747,-1.92747z"/><path d="M248.41888,161.40268c0.52861,-0.92399 1.70618,-1.2445 2.63016,-0.71589c0.92399,0.52861 1.2445,1.70618 0.71589,2.63016c-0.52861,0.92399 -1.70618,1.2445 -2.63016,0.71589c-0.92399,-0.52861 -1.2445,-1.70617 -0.71589,-2.63016z"/><path d="M228.23507,196.68303c0.52861,-0.92399 1.70618,-1.2445 2.63016,-0.71589c0.92399,0.52861 1.2445,1.70618 0.71589,2.63016c-0.52861,0.92399 -1.70618,1.2445 -2.63016,0.71589c-0.92399,-0.52861 -1.2445,-1.70618 -0.71589,-2.63016z"/><path d="M256.63415,168.16601c0.92179,-0.53244 2.10067,-0.21681 2.6331,0.70498c0.53244,0.92179 0.2168,2.10067 -0.70499,2.6331c-0.92179,0.53244 -2.10067,0.21681 -2.6331,-0.70498c-0.53244,-0.92179 -0.2168,-2.10067 0.70499,-2.6331z"/><path d="M221.43773,188.49587c0.92179,-0.53244 2.10067,-0.21681 2.6331,0.70498c0.53244,0.92179 0.2168,2.10067 -0.70499,2.6331c-0.92179,0.53244 -2.10067,0.2168 -2.6331,-0.70499c-0.53244,-0.92179 -0.2168,-2.10067 0.70499,-2.6331z"/><path d="M260.3263,178.10819c1.06451,0.00187 1.92595,0.86633 1.92408,1.93084c-0.00187,1.06451 -0.86633,1.92595 -1.93084,1.92408c-1.06451,-0.00187 -1.92595,-0.86633 -1.92408,-1.93084c0.00187,-1.06451 0.86633,-1.92595 1.93084,-1.92408z"/><path d="M219.68046,178.03688c1.06451,0.00187 1.92595,0.86633 1.92408,1.93084c-0.00187,1.06451 -0.86633,1.92595 -1.93084,1.92408c-1.06451,-0.00187 -1.92595,-0.86634 -1.92408,-1.93085c0.00187,-1.06451 0.86633,-1.92595 1.93084,-1.92408z"/><path d="M230.86523,164.03283c-0.92398,0.52861 -2.10155,0.20809 -2.63016,-0.71589c-0.52861,-0.92398 -0.20809,-2.10155 0.71589,-2.63016c0.92398,-0.52861 2.10155,-0.2081 2.63016,0.71589c0.52861,0.92398 0.20809,2.10155 -0.71589,2.63016z" data-paper-data="{&quot;index&quot;:null}"/><path d="M251.04903,199.31319c-0.92398,0.52861 -2.10155,0.2081 -2.63016,-0.71589c-0.52861,-0.92398 -0.20809,-2.10155 0.71589,-2.63016c0.92398,-0.52861 2.10155,-0.2081 2.63016,0.71589c0.52861,0.92398 0.20809,2.10155 -0.71589,2.63016z" data-paper-data="{&quot;index&quot;:null}"/><path d="M224.07084,170.79912c-0.53243,0.92179 -1.71131,1.23743 -2.6331,0.70499c-0.92179,-0.53243 -1.23742,-1.71131 -0.70499,-2.6331c0.53243,-0.92179 1.71131,-1.23743 2.6331,-0.70499c0.92179,0.53243 1.23743,1.71131 0.70499,2.6331z" data-paper-data="{&quot;index&quot;:null}"/><path d="M259.26725,191.12897c-0.53243,0.92179 -1.71131,1.23742 -2.6331,0.70499c-0.92179,-0.53243 -1.23743,-1.71131 -0.70499,-2.6331c0.53243,-0.92179 1.71131,-1.23742 2.6331,-0.70498c0.92179,0.53243 1.23742,1.71131 0.70499,2.6331z" data-paper-data="{&quot;index&quot;:null}"/><path d="M238.07254,159.67702c0,-1.06451 0.86296,-1.92746 1.92747,-1.92746c1.06451,0 1.92747,0.86295 1.92747,1.92746c0,1.06451 -0.86296,1.92747 -1.92747,1.92747c-1.06451,0 -1.92747,-0.86296 -1.92747,-1.92747z"/><path d="M238.07254,200.32294c0,-1.06451 0.86296,-1.92747 1.92747,-1.92747c1.06451,0 1.92747,0.86296 1.92747,1.92747c0,1.06451 -0.86296,1.92746 -1.92747,1.92746c-1.06451,0 -1.92747,-0.86295 -1.92747,-1.92746z"/><path d="M248.41888,161.40266c0.52861,-0.92399 1.70618,-1.2445 2.63016,-0.71589c0.92399,0.52861 1.2445,1.70618 0.71589,2.63016c-0.52861,0.92399 -1.70618,1.2445 -2.63016,0.71589c-0.92399,-0.52861 -1.2445,-1.70618 -0.71589,-2.63016z"/><path d="M228.23507,196.68301c0.52861,-0.92399 1.70618,-1.2445 2.63016,-0.71589c0.92399,0.52861 1.2445,1.70618 0.71589,2.63016c-0.52861,0.92399 -1.70618,1.2445 -2.63016,0.71589c-0.92399,-0.52861 -1.2445,-1.70618 -0.71589,-2.63016z"/><path d="M256.63415,168.16599c0.92179,-0.53244 2.10067,-0.2168 2.6331,0.70499c0.53244,0.92179 0.2168,2.10067 -0.70499,2.6331c-0.92179,0.53244 -2.10067,0.2168 -2.6331,-0.70499c-0.53244,-0.92179 -0.2168,-2.10067 0.70499,-2.6331z"/><path d="M221.43773,188.49585c0.92179,-0.53244 2.10067,-0.2168 2.6331,0.70499c0.53244,0.92179 0.2168,2.10067 -0.70499,2.6331c-0.92179,0.53244 -2.10067,0.21681 -2.6331,-0.70498c-0.53244,-0.92179 -0.2168,-2.10067 0.70499,-2.63311z"/><path d="M260.3263,178.10817c1.06451,0.00187 1.92595,0.86633 1.92408,1.93084c-0.00187,1.06451 -0.86633,1.92595 -1.93084,1.92408c-1.06451,-0.00187 -1.92595,-0.86633 -1.92408,-1.93084c0.00187,-1.06451 0.86633,-1.92595 1.93084,-1.92408z"/><path d="M219.68046,178.03686c1.06451,0.00187 1.92595,0.86634 1.92408,1.93085c-0.00187,1.06451 -0.86633,1.92594 -1.93084,1.92408c-1.06451,-0.00187 -1.92595,-0.86633 -1.92408,-1.93084c0.00187,-1.06451 0.86633,-1.92595 1.93084,-1.92408z"/><path d="M230.86523,164.0328c-0.92398,0.52861 -2.10155,0.2081 -2.63016,-0.71589c-0.52861,-0.92398 -0.20809,-2.10155 0.71589,-2.63016c0.92398,-0.52861 2.10155,-0.2081 2.63016,0.71589c0.52861,0.92398 0.20809,2.10155 -0.71589,2.63016z" data-paper-data="{&quot;index&quot;:null}"/><path d="M251.04903,199.31317c-0.92398,0.52861 -2.10155,0.2081 -2.63016,-0.71589c-0.52861,-0.92398 -0.20809,-2.10155 0.71589,-2.63016c0.92398,-0.52861 2.10155,-0.2081 2.63016,0.71589c0.52861,0.92398 0.20809,2.10155 -0.71589,2.63016z" data-paper-data="{&quot;index&quot;:null}"/><path d="M224.07084,170.79911c-0.53243,0.92179 -1.71131,1.23742 -2.6331,0.70499c-0.92179,-0.53243 -1.23742,-1.71131 -0.70499,-2.6331c0.53243,-0.92179 1.71131,-1.23742 2.6331,-0.70499c0.92179,0.53243 1.23743,1.71131 0.70499,2.6331z" data-paper-data="{&quot;index&quot;:null}"/><path d="M259.26725,191.12896c-0.53243,0.92179 -1.71131,1.23742 -2.6331,0.70498c-0.92179,-0.53243 -1.23743,-1.71131 -0.70499,-2.6331c0.53243,-0.92179 1.71131,-1.23743 2.6331,-0.70499c0.92179,0.53243 1.23742,1.71132 0.70499,2.63311z" data-paper-data="{&quot;index&quot;:null}"/></g></g><g fill="#ffc7c7"><g><path d="M238.3598,162.70588c0,-0.90586 0.73435,-1.64021 1.64021,-1.64021c0.90586,0 1.64021,0.73435 1.64021,1.64021c0,0.90586 -0.73435,1.64021 -1.64021,1.64021c-0.90586,0 -1.64021,-0.73435 -1.64021,-1.64021z"/><path d="M238.3598,197.29414c0,-0.90586 0.73435,-1.64021 1.64021,-1.64021c0.90586,0 1.64021,0.73435 1.64021,1.64021c0,0.90586 -0.73435,1.64021 -1.64021,1.64021c-0.90586,0 -1.64021,-0.73435 -1.64021,-1.64021z"/><path d="M247.16417,164.17434c0.44983,-0.78628 1.4519,-1.05903 2.23817,-0.6092c0.78628,0.44983 1.05903,1.4519 0.6092,2.23817c-0.44983,0.78628 -1.4519,1.05903 -2.23817,0.6092c-0.78628,-0.44983 -1.05903,-1.4519 -0.6092,-2.23817z"/><path d="M229.98845,194.19669c0.44983,-0.78628 1.4519,-1.05903 2.23817,-0.6092c0.78628,0.44983 1.05903,1.4519 0.6092,2.23817c-0.44983,0.78628 -1.4519,1.05903 -2.23817,0.6092c-0.78628,-0.44983 -1.05903,-1.4519 -0.6092,-2.23817z"/><path d="M254.15508,169.9297c0.78441,-0.45309 1.7876,-0.18449 2.24068,0.59992c0.45309,0.78441 0.18449,1.7876 -0.59992,2.24068c-0.78441,0.45309 -1.7876,0.18449 -2.24068,-0.59992c-0.45309,-0.78441 -0.18449,-1.7876 0.59992,-2.24068z"/><path d="M224.20416,187.2297c0.78441,-0.45309 1.7876,-0.18449 2.24068,0.59992c0.45309,0.78441 0.18449,1.7876 -0.59992,2.24068c-0.78441,0.45309 -1.7876,0.18449 -2.24068,-0.59992c-0.45309,-0.78441 -0.18449,-1.7876 0.59992,-2.24068z"/><path d="M257.29698,178.39014c0.90586,0.00159 1.63892,0.73722 1.63733,1.64308c-0.00159,0.90586 -0.73722,1.63892 -1.64308,1.63733c-0.90586,-0.00159 -1.63892,-0.73722 -1.63733,-1.64308c0.00159,-0.90586 0.73722,-1.63892 1.64308,-1.63733z"/><path d="M222.70878,178.32946c0.90586,0.00159 1.63892,0.73722 1.63733,1.64308c-0.00159,0.90586 -0.73722,1.63892 -1.64308,1.63733c-0.90586,-0.00159 -1.63892,-0.73722 -1.63733,-1.64308c0.00159,-0.90586 0.73722,-1.63892 1.64308,-1.63733z"/><path d="M232.22662,166.4125c-0.78628,0.44983 -1.78834,0.17708 -2.23817,-0.6092c-0.44983,-0.78628 -0.17708,-1.78835 0.6092,-2.23817c0.78628,-0.44983 1.78835,-0.17708 2.23817,0.6092c0.44983,0.78628 0.17708,1.78835 -0.6092,2.23817z" data-paper-data="{&quot;index&quot;:null}"/><path d="M249.40235,196.43487c-0.78628,0.44983 -1.78835,0.17708 -2.23817,-0.6092c-0.44983,-0.78628 -0.17708,-1.78835 0.6092,-2.23817c0.78628,-0.44983 1.78835,-0.17708 2.23817,0.6092c0.44983,0.78628 0.17708,1.78835 -0.6092,2.23817z" data-paper-data="{&quot;index&quot;:null}"/><path d="M226.44483,172.17039c-0.45308,0.78441 -1.45627,1.05301 -2.24068,0.59992c-0.78441,-0.45308 -1.05301,-1.45627 -0.59992,-2.24068c0.45308,-0.78441 1.45627,-1.05301 2.24068,-0.59992c0.78441,0.45308 1.05301,1.45627 0.59992,2.24068z" data-paper-data="{&quot;index&quot;:null}"/><path d="M256.39576,189.47038c-0.45308,0.78441 -1.45627,1.05301 -2.24068,0.59992c-0.78441,-0.45308 -1.05301,-1.45627 -0.59992,-2.24068c0.45308,-0.78441 1.45627,-1.05301 2.24068,-0.59992c0.78441,0.45308 1.05301,1.45627 0.59992,2.24068z" data-paper-data="{&quot;index&quot;:null}"/><path d="M238.3598,162.70586c0,-0.90586 0.73435,-1.64021 1.64021,-1.64021c0.90586,0 1.64021,0.73435 1.64021,1.64021c0,0.90586 -0.73435,1.64021 -1.64021,1.64021c-0.90586,0 -1.64021,-0.73435 -1.64021,-1.64021z"/><path d="M238.3598,197.29412c0,-0.90586 0.73435,-1.64021 1.64021,-1.64021c0.90586,0 1.64021,0.73435 1.64021,1.64021c0,0.90586 -0.73435,1.64021 -1.64021,1.64021c-0.90586,0 -1.64021,-0.73435 -1.64021,-1.64021z"/><path d="M247.16417,164.17432c0.44983,-0.78628 1.4519,-1.05903 2.23817,-0.60919c0.78628,0.44983 1.05903,1.4519 0.6092,2.23817c-0.44983,0.78628 -1.4519,1.05903 -2.23817,0.60919c-0.78628,-0.44983 -1.05903,-1.4519 -0.6092,-2.23817z"/><path d="M229.98845,194.19667c0.44983,-0.78628 1.4519,-1.05903 2.23817,-0.6092c0.78628,0.44983 1.05903,1.4519 0.6092,2.23817c-0.44983,0.78628 -1.4519,1.05903 -2.23817,0.6092c-0.78628,-0.44983 -1.05903,-1.4519 -0.6092,-2.23817z"/><path d="M254.15508,169.92968c0.78441,-0.45309 1.7876,-0.18449 2.24068,0.59992c0.45309,0.78441 0.18449,1.7876 -0.59992,2.24068c-0.78441,0.45309 -1.7876,0.18449 -2.24068,-0.59992c-0.45309,-0.78441 -0.18449,-1.7876 0.59992,-2.24068z"/><path d="M224.20416,187.22968c0.78441,-0.45309 1.7876,-0.18449 2.24068,0.59992c0.45309,0.78441 0.18449,1.7876 -0.59992,2.24068c-0.78441,0.45309 -1.7876,0.18449 -2.24068,-0.59992c-0.45309,-0.78441 -0.18449,-1.7876 0.59992,-2.24068z"/><path d="M257.29698,178.39013c0.90586,0.00159 1.63892,0.73722 1.63733,1.64308c-0.00159,0.90586 -0.73722,1.63892 -1.64308,1.63733c-0.90586,-0.00159 -1.63892,-0.73722 -1.63733,-1.64308c0.00159,-0.90586 0.73722,-1.63892 1.64308,-1.63733z"/><path d="M222.70878,178.32945c0.90586,0.00159 1.63892,0.73722 1.63733,1.64308c-0.00159,0.90586 -0.73722,1.63892 -1.64308,1.63733c-0.90586,-0.00159 -1.63892,-0.73722 -1.63733,-1.64308c0.00159,-0.90586 0.73722,-1.63892 1.64308,-1.63733z"/><path d="M232.22662,166.41248c-0.78628,0.44983 -1.78834,0.17708 -2.23817,-0.6092c-0.44983,-0.78628 -0.17708,-1.78835 0.6092,-2.23817c0.78628,-0.44983 1.78835,-0.17708 2.23817,0.6092c0.44983,0.78628 0.17708,1.78835 -0.6092,2.23817z" data-paper-data="{&quot;index&quot;:null}"/><path d="M249.40235,196.43485c-0.78628,0.44983 -1.78835,0.17708 -2.23817,-0.6092c-0.44983,-0.78628 -0.17708,-1.78835 0.6092,-2.23817c0.78628,-0.44983 1.78835,-0.17708 2.23817,0.6092c0.44983,0.78628 0.17708,1.78835 -0.6092,2.23817z" data-paper-data="{&quot;index&quot;:null}"/><path d="M226.44483,172.17037c-0.45308,0.78441 -1.45627,1.05301 -2.24068,0.59992c-0.78441,-0.45308 -1.05301,-1.45627 -0.59992,-2.24068c0.45308,-0.78441 1.45627,-1.05301 2.24068,-0.59992c0.78441,0.45308 1.05301,1.45627 0.59992,2.24068z" data-paper-data="{&quot;index&quot;:null}"/><path d="M256.39576,189.47036c-0.45308,0.78441 -1.45627,1.05301 -2.24068,0.59992c-0.78441,-0.45308 -1.05301,-1.45627 -0.59992,-2.24068c0.45308,-0.78441 1.45627,-1.05301 2.24068,-0.59992c0.78441,0.45308 1.05301,1.45627 0.59992,2.24068z" data-paper-data="{&quot;index&quot;:null}"/></g><g><path d="M238.59345,165.16944c0,-0.77682 0.62974,-1.40656 1.40656,-1.40656c0.77682,0 1.40656,0.62974 1.40656,1.40656c0,0.77682 -0.62974,1.40656 -1.40656,1.40656c-0.77682,0 -1.40656,-0.62974 -1.40656,-1.40656z"/><path d="M238.59345,194.83056c0,-0.77682 0.62974,-1.40656 1.40656,-1.40656c0.77682,0 1.40656,0.62974 1.40656,1.40656c0,0.77682 -0.62974,1.40656 -1.40656,1.40656c-0.77682,0 -1.40656,-0.62974 -1.40656,-1.40656z"/><path d="M246.14363,166.42871c0.38575,-0.67428 1.24507,-0.90817 1.91934,-0.52241c0.67428,0.38575 0.90817,1.24507 0.52242,1.91934c-0.38575,0.67428 -1.24507,0.90817 -1.91934,0.52242c-0.67428,-0.38575 -0.90817,-1.24508 -0.52242,-1.91935z"/><path d="M231.41461,192.17434c0.38575,-0.67428 1.24507,-0.90817 1.91934,-0.52242c0.67428,0.38575 0.90817,1.24507 0.52242,1.91934c-0.38575,0.67428 -1.24507,0.90817 -1.91934,0.52242c-0.67428,-0.38575 -0.90817,-1.24507 -0.52242,-1.91934z"/><path d="M252.13867,171.36422c0.67267,-0.38854 1.53295,-0.15821 1.92149,0.51446c0.38854,0.67267 0.15821,1.53295 -0.51446,1.92149c-0.67267,0.38854 -1.53295,0.15821 -1.92149,-0.51446c-0.38854,-0.67267 -0.15821,-1.53295 0.51446,-1.92149z"/><path d="M226.4543,186.19981c0.67267,-0.38854 1.53295,-0.15821 1.92149,0.51446c0.38854,0.67267 0.15821,1.53295 -0.51446,1.92149c-0.67267,0.38854 -1.53295,0.15821 -1.92149,-0.51446c-0.38854,-0.67267 -0.15821,-1.53295 0.51446,-1.9215z"/><path d="M254.833,178.61946c0.77682,0.00136 1.40545,0.6322 1.40409,1.40902c-0.00136,0.77682 -0.6322,1.40545 -1.40902,1.40409c-0.77682,-0.00136 -1.40545,-0.6322 -1.40409,-1.40902c0.00136,-0.77682 0.6322,-1.40545 1.40902,-1.40409z"/><path d="M225.17193,178.56743c0.77682,0.00136 1.40545,0.6322 1.40409,1.40902c-0.00136,0.77682 -0.6322,1.40545 -1.40902,1.40409c-0.77682,-0.00136 -1.40545,-0.6322 -1.40409,-1.40902c0.00136,-0.77682 0.6322,-1.40544 1.40902,-1.40408z"/><path d="M233.33395,168.34805c-0.67427,0.38575 -1.5336,0.15186 -1.91934,-0.52241c-0.38575,-0.67427 -0.15186,-1.5336 0.52242,-1.91935c0.67427,-0.38575 1.5336,-0.15186 1.91934,0.52242c0.38575,0.67427 0.15186,1.5336 -0.52242,1.91934z" data-paper-data="{&quot;index&quot;:null}"/><path d="M248.06297,194.09369c-0.67427,0.38575 -1.5336,0.15186 -1.91934,-0.52242c-0.38575,-0.67427 -0.15186,-1.5336 0.52242,-1.91934c0.67427,-0.38575 1.5336,-0.15186 1.91934,0.52242c0.38575,0.67427 0.15186,1.5336 -0.52242,1.91934z" data-paper-data="{&quot;index&quot;:null}"/><path d="M228.37579,173.28572c-0.38854,0.67267 -1.24882,0.903 -1.92149,0.51446c-0.67267,-0.38854 -0.903,-1.24882 -0.51446,-1.92149c0.38854,-0.67267 1.24882,-0.903 1.92149,-0.51446c0.67267,0.38854 0.903,1.24882 0.51446,1.92149z" data-paper-data="{&quot;index&quot;:null}"/><path d="M254.06017,188.1213c-0.38854,0.67267 -1.24882,0.903 -1.92149,0.51446c-0.67267,-0.38854 -0.903,-1.24882 -0.51446,-1.92149c0.38854,-0.67267 1.24882,-0.903 1.92149,-0.51446c0.67267,0.38854 0.903,1.24882 0.51446,1.9215z" data-paper-data="{&quot;index&quot;:null}"/><path d="M238.59345,165.16943c0,-0.77682 0.62974,-1.40656 1.40656,-1.40656c0.77682,0 1.40656,0.62974 1.40656,1.40656c0,0.77682 -0.62974,1.40656 -1.40656,1.40656c-0.77682,0 -1.40656,-0.62974 -1.40656,-1.40656z"/><path d="M238.59345,194.83054c0,-0.77682 0.62974,-1.40655 1.40656,-1.40655c0.77682,0 1.40656,0.62973 1.40656,1.40655c0,0.77682 -0.62974,1.40656 -1.40656,1.40656c-0.77682,0 -1.40656,-0.62974 -1.40656,-1.40656z"/><path d="M246.14363,166.4287c0.38575,-0.67428 1.24507,-0.90817 1.91934,-0.52242c0.67428,0.38575 0.90817,1.24507 0.52242,1.91934c-0.38575,0.67428 -1.24507,0.90817 -1.91934,0.52242c-0.67428,-0.38575 -0.90817,-1.24507 -0.52242,-1.91934z"/><path d="M231.41461,192.17433c0.38575,-0.67428 1.24507,-0.90817 1.91934,-0.52242c0.67428,0.38575 0.90817,1.24507 0.52242,1.91934c-0.38575,0.67428 -1.24507,0.90817 -1.91934,0.52242c-0.67428,-0.38575 -0.90817,-1.24507 -0.52242,-1.91934z"/><path d="M252.13867,171.3642c0.67267,-0.38854 1.53295,-0.15821 1.92149,0.51446c0.38854,0.67267 0.15821,1.53295 -0.51446,1.92149c-0.67267,0.38854 -1.53295,0.15821 -1.92149,-0.51446c-0.38854,-0.67267 -0.15821,-1.53295 0.51446,-1.92149z"/><path d="M226.4543,186.1998c0.67267,-0.38854 1.53295,-0.15821 1.92149,0.51446c0.38854,0.67267 0.15821,1.53295 -0.51446,1.92149c-0.67267,0.38854 -1.53295,0.15821 -1.92149,-0.51446c-0.38854,-0.67267 -0.15821,-1.53295 0.51446,-1.92149z"/><path d="M254.833,178.61945c0.77682,0.00136 1.40545,0.6322 1.40409,1.40902c-0.00136,0.77682 -0.6322,1.40545 -1.40902,1.40409c-0.77682,-0.00136 -1.40545,-0.6322 -1.40409,-1.40902c0.00136,-0.77682 0.6322,-1.40545 1.40902,-1.40409z"/><path d="M225.17193,178.56741c0.77682,0.00136 1.40545,0.6322 1.40409,1.40902c-0.00136,0.77682 -0.6322,1.40545 -1.40902,1.40409c-0.77682,-0.00136 -1.40545,-0.6322 -1.40409,-1.40902c0.00136,-0.77682 0.6322,-1.40545 1.40902,-1.40409z"/><path d="M233.33395,168.34804c-0.67427,0.38575 -1.5336,0.15186 -1.91934,-0.52242c-0.38575,-0.67427 -0.15186,-1.5336 0.52242,-1.91935c0.67427,-0.38575 1.5336,-0.15186 1.91934,0.52242c0.38575,0.67427 0.15186,1.5336 -0.52242,1.91934z" data-paper-data="{&quot;index&quot;:null}"/><path d="M248.06297,194.09367c-0.67427,0.38575 -1.5336,0.15186 -1.91934,-0.52242c-0.38575,-0.67427 -0.15186,-1.5336 0.52242,-1.91934c0.67427,-0.38575 1.5336,-0.15186 1.91934,0.52242c0.38575,0.67427 0.15186,1.5336 -0.52242,1.91934z" data-paper-data="{&quot;index&quot;:null}"/><path d="M228.37579,173.2857c-0.38854,0.67267 -1.24882,0.903 -1.92149,0.51446c-0.67267,-0.38854 -0.903,-1.24882 -0.51446,-1.92149c0.38854,-0.67267 1.24882,-0.903 1.92149,-0.51446c0.67267,0.38854 0.903,1.24882 0.51446,1.92149z" data-paper-data="{&quot;index&quot;:null}"/><path d="M254.06017,188.12129c-0.38854,0.67267 -1.24882,0.903 -1.92149,0.51446c-0.67267,-0.38854 -0.903,-1.24882 -0.51446,-1.92149c0.38854,-0.67267 1.24882,-0.903 1.92149,-0.51446c0.67267,0.38854 0.903,1.24882 0.51446,1.92149z" data-paper-data="{&quot;index&quot;:null}"/></g><g><path d="M238.73869,166.70086c0,-0.6966 0.56471,-1.26131 1.26132,-1.26131c0.6966,0 1.26131,0.56471 1.26131,1.26131c0,0.6966 -0.56471,1.26131 -1.26131,1.26131c-0.6966,0 -1.26132,-0.56471 -1.26132,-1.26131z"/><path d="M238.73869,193.29914c0,-0.6966 0.56471,-1.26131 1.26132,-1.26131c0.6966,0 1.26131,0.56471 1.26131,1.26131c0,0.6966 -0.56471,1.26132 -1.26131,1.26132c-0.6966,0 -1.26132,-0.56471 -1.26132,-1.26132z"/><path d="M245.50923,167.8301c0.34592,-0.60465 1.1165,-0.81439 1.72115,-0.46847c0.60465,0.34592 0.81439,1.1165 0.46847,1.72115c-0.34592,0.60465 -1.1165,0.81439 -1.72115,0.46847c-0.60465,-0.34592 -0.81439,-1.1165 -0.46847,-1.72115z"/><path d="M232.30114,190.91721c0.34592,-0.60465 1.1165,-0.81439 1.72115,-0.46847c0.60465,0.34592 0.81439,1.1165 0.46847,1.72115c-0.34592,0.60465 -1.1165,0.81439 -1.72115,0.46847c-0.60465,-0.34592 -0.81439,-1.1165 -0.46847,-1.72115z"/><path d="M250.88522,172.25596c0.60321,-0.34842 1.37466,-0.14188 1.72308,0.46133c0.34842,0.60321 0.14188,1.37466 -0.46134,1.72308c-0.60321,0.34842 -1.37466,0.14188 -1.72308,-0.46134c-0.34842,-0.60321 -0.14188,-1.37465 0.46134,-1.72307z"/><path d="M227.85304,185.55961c0.60321,-0.34842 1.37465,-0.14188 1.72307,0.46134c0.34842,0.60321 0.14187,1.37465 -0.46134,1.72307c-0.60321,0.34842 -1.37465,0.14188 -1.72307,-0.46134c-0.34842,-0.60321 -0.14187,-1.37465 0.46134,-1.72307z"/><path d="M253.30133,178.76202c0.6966,0.00122 1.26032,0.56692 1.2591,1.26353c-0.00122,0.6966 -0.56692,1.26032 -1.26353,1.2591c-0.6966,-0.00122 -1.26032,-0.56692 -1.2591,-1.26352c0.00122,-0.6966 0.56692,-1.26032 1.26353,-1.2591z"/><path d="M226.7031,178.71535c0.6966,0.00122 1.26032,0.56692 1.2591,1.26353c-0.00122,0.6966 -0.56692,1.26032 -1.26353,1.2591c-0.6966,-0.00122 -1.26032,-0.56692 -1.2591,-1.26353c0.00122,-0.6966 0.56692,-1.26032 1.26353,-1.2591z"/><path d="M234.02229,169.55124c-0.60465,0.34592 -1.37523,0.13618 -1.72115,-0.46847c-0.34592,-0.60465 -0.13617,-1.37523 0.46847,-1.72115c0.60465,-0.34592 1.37523,-0.13618 1.72115,0.46847c0.34592,0.60465 0.13617,1.37523 -0.46847,1.72115z" data-paper-data="{&quot;index&quot;:null}"/><path d="M247.23038,192.63836c-0.60465,0.34592 -1.37523,0.13618 -1.72115,-0.46847c-0.34592,-0.60465 -0.13618,-1.37523 0.46847,-1.72115c0.60465,-0.34592 1.37523,-0.13618 1.72115,0.46847c0.34592,0.60465 0.13617,1.37523 -0.46847,1.72115z" data-paper-data="{&quot;index&quot;:null}"/><path d="M229.57611,173.97904c-0.34842,0.60321 -1.11986,0.80976 -1.72307,0.46134c-0.60321,-0.34842 -0.80976,-1.11986 -0.46134,-1.72307c0.34842,-0.60321 1.11986,-0.80976 1.72307,-0.46134c0.60321,0.34842 0.80976,1.11987 0.46134,1.72308z" data-paper-data="{&quot;index&quot;:null}"/><path d="M252.6083,187.28269c-0.34842,0.60321 -1.11986,0.80976 -1.72307,0.46134c-0.60321,-0.34842 -0.80976,-1.11986 -0.46134,-1.72307c0.34842,-0.60321 1.11986,-0.80976 1.72307,-0.46134c0.60321,0.34842 0.80976,1.11986 0.46134,1.72307z" data-paper-data="{&quot;index&quot;:null}"/><path d="M238.73869,166.70084c0,-0.6966 0.56471,-1.26131 1.26132,-1.26131c0.6966,0 1.26131,0.56471 1.26131,1.26131c0,0.6966 -0.56471,1.26132 -1.26131,1.26132c-0.6966,0 -1.26132,-0.56471 -1.26132,-1.26132z"/><path d="M238.73869,193.29913c0,-0.6966 0.56471,-1.26131 1.26132,-1.26131c0.6966,0 1.26131,0.56471 1.26131,1.26131c0,0.6966 -0.56471,1.26131 -1.26131,1.26131c-0.6966,0 -1.26132,-0.56471 -1.26132,-1.26131z"/><path d="M245.50923,167.83008c0.34592,-0.60465 1.1165,-0.81439 1.72115,-0.46847c0.60465,0.34592 0.81439,1.1165 0.46847,1.72115c-0.34592,0.60465 -1.1165,0.81439 -1.72115,0.46847c-0.60465,-0.34592 -0.81439,-1.1165 -0.46847,-1.72115z"/><path d="M232.30114,190.9172c0.34592,-0.60465 1.1165,-0.81439 1.72115,-0.46847c0.60465,0.34592 0.81439,1.1165 0.46847,1.72115c-0.34592,0.60465 -1.1165,0.81439 -1.72115,0.46847c-0.60465,-0.34592 -0.81439,-1.1165 -0.46847,-1.72115z"/><path d="M250.88522,172.25594c0.60321,-0.34842 1.37466,-0.14187 1.72308,0.46134c0.34842,0.60321 0.14188,1.37466 -0.46134,1.72308c-0.60321,0.34842 -1.37466,0.14187 -1.72308,-0.46134c-0.34842,-0.60321 -0.14188,-1.37466 0.46134,-1.72308z"/><path d="M227.85304,185.5596c0.60321,-0.34842 1.37465,-0.14187 1.72307,0.46134c0.34842,0.60321 0.14187,1.37465 -0.46134,1.72307c-0.60321,0.34842 -1.37465,0.14188 -1.72307,-0.46134c-0.34842,-0.60321 -0.14187,-1.37466 0.46134,-1.72308z"/><path d="M253.30133,178.76201c0.6966,0.00122 1.26032,0.56692 1.2591,1.26353c-0.00122,0.6966 -0.56692,1.26032 -1.26353,1.2591c-0.6966,-0.00122 -1.26032,-0.56692 -1.2591,-1.26353c0.00122,-0.6966 0.56692,-1.26032 1.26353,-1.2591z"/><path d="M226.7031,178.71534c0.6966,0.00122 1.26032,0.56692 1.2591,1.26353c-0.00122,0.6966 -0.56692,1.26032 -1.26353,1.2591c-0.6966,-0.00122 -1.26032,-0.56692 -1.2591,-1.26353c0.00122,-0.6966 0.56692,-1.26032 1.26353,-1.2591z"/><path d="M234.02229,169.55123c-0.60465,0.34592 -1.37523,0.13618 -1.72115,-0.46847c-0.34592,-0.60465 -0.13617,-1.37523 0.46847,-1.72115c0.60465,-0.34592 1.37523,-0.13618 1.72115,0.46847c0.34592,0.60465 0.13617,1.37523 -0.46847,1.72115z" data-paper-data="{&quot;index&quot;:null}"/><path d="M247.23038,192.63835c-0.60465,0.34592 -1.37523,0.13618 -1.72115,-0.46847c-0.34592,-0.60465 -0.13618,-1.37523 0.46847,-1.72115c0.60465,-0.34592 1.37523,-0.13618 1.72115,0.46847c0.34592,0.60465 0.13617,1.37523 -0.46847,1.72115z" data-paper-data="{&quot;index&quot;:null}"/><path d="M229.57611,173.97903c-0.34842,0.60321 -1.11986,0.80976 -1.72307,0.46134c-0.60321,-0.34842 -0.80976,-1.11986 -0.46134,-1.72307c0.34842,-0.60321 1.11986,-0.80976 1.72307,-0.46134c0.60321,0.34842 0.80976,1.11986 0.46134,1.72307z" data-paper-data="{&quot;index&quot;:null}"/><path d="M252.6083,187.28268c-0.34842,0.60321 -1.11986,0.80976 -1.72307,0.46134c-0.60321,-0.34842 -0.80976,-1.11986 -0.46134,-1.72307c0.34842,-0.60321 1.11986,-0.80976 1.72307,-0.46134c0.60321,0.34842 0.80976,1.11987 0.46134,1.72308z" data-paper-data="{&quot;index&quot;:null}"/></g></g></g></g></svg>